<svg xmlns="http://www.w3.org/2000/svg" width="85" height="91" viewBox="0 0 85 91">
  <g id="Grupo_1098839" data-name="Grupo 1098839" transform="translate(-180 -379)">
    <rect id="Rectángulo_400904" data-name="Rectángulo 400904" width="85" height="91" rx="12" transform="translate(180 379)" fill="#3a1d71"/>
    <g id="database" transform="translate(187 389)">
      <path id="Trazado_872969" data-name="Trazado 872969" d="M42.683,28V39.023c0,3.042-8.885,5.512-19.842,5.512S3,42.065,3,39.023V28c0,3.042,8.885,5.512,19.842,5.512S42.683,31.042,42.683,28Z" transform="translate(0.102 2.66)" fill="#c0ab91"/>
      <path id="Trazado_872970" data-name="Trazado 872970" d="M63.251,31.432v6.614l-5.027.838a14.425,14.425,0,0,1-1.08,2.624L60.1,45.652l-4.674,4.674-3.516-2.5a2.22,2.22,0,0,0,1.422-2.061V36.944a2.171,2.171,0,0,0-.121-.717,9.457,9.457,0,0,0,.121-1.488A8.818,8.818,0,0,0,39,27.861V21.512a14.34,14.34,0,0,1,1.367-.485L41.2,16h6.614l.838,5.027a14.425,14.425,0,0,1,2.624,1.08l4.145-2.954L60.1,23.826l-2.954,4.145a14.425,14.425,0,0,1,1.08,2.624Z" transform="translate(3.786 1.432)" fill="#ffeb99"/>
      <rect id="Rectángulo_400964" data-name="Rectángulo 400964" width="44" height="13" rx="2" transform="translate(13 54)" fill="#57a4ff"/>
      <path id="Trazado_872971" data-name="Trazado 872971" d="M52.614,51.2v8.818a2.211,2.211,0,0,1-2.2,2.2H46a2.211,2.211,0,0,0,2.2-2.2V51.2A2.211,2.211,0,0,0,46,49h4.409A2.211,2.211,0,0,1,52.614,51.2Z" transform="translate(4.502 4.809)" fill="#2488ff"/>
      <path id="Trazado_872972" data-name="Trazado 872972" d="M53.33,33.818a9.458,9.458,0,0,1-.121,1.488,2.219,2.219,0,0,0-2.083-1.488H39V26.94a8.818,8.818,0,0,1,14.33,6.878Z" transform="translate(3.786 2.354)" fill="#c6c5ca"/>
      <path id="Trazado_872973" data-name="Trazado 872973" d="M53.021,33.818a9.458,9.458,0,0,1-.121,1.488,2.219,2.219,0,0,0-2.083-1.488h-2.2a8.837,8.837,0,0,0-6.592-8.543,8.818,8.818,0,0,1,11,8.543Z" transform="translate(4.094 2.353)" fill="#acabb1"/>
      <path id="Trazado_872974" data-name="Trazado 872974" d="M42,45h6.614v4.409H42Z" transform="translate(4.092 4.399)" fill="#c6c5ca"/>
      <path id="Trazado_872975" data-name="Trazado 872975" d="M42.683,18V29.023c0,3.042-8.885,5.512-19.842,5.512S3,32.065,3,29.023V18c0,3.042,8.885,5.512,19.842,5.512S42.683,21.042,42.683,18Z" transform="translate(0.102 1.637)" fill="#c0ab91"/>
      <path id="Trazado_872976" data-name="Trazado 872976" d="M42.683,8V19.023c0,3.042-8.885,5.512-19.842,5.512S3,22.065,3,19.023V8c0,3.042,8.885,5.512,19.842,5.512S42.683,11.042,42.683,8Z" transform="translate(0.102 0.614)" fill="#c0ab91"/>
      <ellipse id="Elipse_11441" data-name="Elipse 11441" cx="20" cy="5.5" rx="20" ry="5.5" transform="translate(3 3)" fill="#ffcd00"/>
      <g id="Grupo_1098838" data-name="Grupo 1098838" transform="translate(20.739 8.614)">
        <path id="Trazado_872977" data-name="Trazado 872977" d="M41.046,28V39.023c0,3.042-8.885,5.512-19.842,5.512-.75,0-1.477-.011-2.2-.044,9.921-.3,17.637-2.635,17.637-5.467V31.461C39.393,30.513,41.046,29.312,41.046,28Z" transform="translate(-19 -5.954)" fill="#b39a7c"/>
        <path id="Trazado_872978" data-name="Trazado 872978" d="M39.409,18V29.023c0,1.312-1.653,2.513-4.409,3.461V21.461C37.756,20.513,39.409,19.312,39.409,18Z" transform="translate(-17.363 -6.977)" fill="#b39a7c"/>
        <path id="Trazado_872979" data-name="Trazado 872979" d="M39.409,8V19.023c0,1.312-1.653,2.513-4.409,3.461V11.461c2.756-.948,4.409-2.15,4.409-3.461Z" transform="translate(-17.363 -8)" fill="#b39a7c"/>
      </g>
      <path id="Trazado_872980" data-name="Trazado 872980" d="M41.046,8.512c0,3.042-8.885,5.512-19.842,5.512-.75,0-1.477-.011-2.2-.044,9.921-.3,17.637-2.635,17.637-5.467S28.921,3.342,19,3.044C19.728,3.011,20.455,3,21.2,3,32.162,3,41.046,5.469,41.046,8.512Z" transform="translate(1.739 0.102)" fill="#ebbf00"/>
      <path id="Trazado_872981" data-name="Trazado 872981" d="M24,53h4.409v4.409H24Z" transform="translate(2.251 5.218)" fill="#ffeb99"/>
      <rect id="Rectángulo_400965" data-name="Rectángulo 400965" width="44" height="13" rx="2" transform="translate(13 36)" fill="#57a4ff"/>
      <path id="Trazado_872982" data-name="Trazado 872982" d="M52.614,35.2v8.818a2.211,2.211,0,0,1-2.2,2.2H46a2.211,2.211,0,0,0,2.2-2.2V35.2A2.211,2.211,0,0,0,46,33h4.409A2.211,2.211,0,0,1,52.614,35.2Z" transform="translate(4.502 3.172)" fill="#2488ff"/>
      <path id="Trazado_872983" data-name="Trazado 872983" d="M24,37h4.409v4.409H24Z" transform="translate(2.251 3.581)" fill="#ffeb99"/>
      <path id="Trazado_872984" data-name="Trazado 872984" d="M16,45h6.614v4.409H16Z" transform="translate(1.432 4.399)" fill="#c6c5ca"/>
      <path id="Trazado_872985" data-name="Trazado 872985" d="M16,53h4.409v4.409H16Z" transform="translate(1.432 5.218)" fill="#ffeb99"/>
      <path id="Trazado_872986" data-name="Trazado 872986" d="M16,37h4.409v4.409H16Z" transform="translate(1.432 3.581)" fill="#ffeb99"/>
      <path id="Trazado_872987" data-name="Trazado 872987" d="M20.512,36H16.1A1.1,1.1,0,0,0,15,37.1v4.409a1.1,1.1,0,0,0,1.1,1.1h4.409a1.1,1.1,0,0,0,1.1-1.1V37.1A1.1,1.1,0,0,0,20.512,36Zm-1.1,4.409H17.2V38.2h2.2Z" transform="translate(1.33 3.479)"/>
      <path id="Trazado_872988" data-name="Trazado 872988" d="M28.512,36H24.1A1.1,1.1,0,0,0,23,37.1v4.409a1.1,1.1,0,0,0,1.1,1.1h4.409a1.1,1.1,0,0,0,1.1-1.1V37.1A1.1,1.1,0,0,0,28.512,36Zm-1.1,4.409H25.2V38.2h2.2Z" transform="translate(2.149 3.479)"/>
      <path id="Trazado_872989" data-name="Trazado 872989" d="M31,36H46.432v2.2H31Z" transform="translate(2.967 3.479)"/>
      <path id="Trazado_872990" data-name="Trazado 872990" d="M47,36h2.2v2.2H47Z" transform="translate(4.604 3.479)"/>
      <path id="Trazado_872991" data-name="Trazado 872991" d="M31,40H46.432v2.2H31Z" transform="translate(2.967 3.888)"/>
      <path id="Trazado_872992" data-name="Trazado 872992" d="M47,40h2.2v2.2H47Z" transform="translate(4.604 3.888)"/>
      <path id="Trazado_872993" data-name="Trazado 872993" d="M16.1,58.614h4.409a1.1,1.1,0,0,0,1.1-1.1V53.1a1.1,1.1,0,0,0-1.1-1.1H16.1A1.1,1.1,0,0,0,15,53.1v4.409A1.1,1.1,0,0,0,16.1,58.614ZM17.2,54.2h2.2v2.2H17.2Z" transform="translate(1.33 5.116)"/>
      <path id="Trazado_872994" data-name="Trazado 872994" d="M24.1,58.614h4.409a1.1,1.1,0,0,0,1.1-1.1V53.1a1.1,1.1,0,0,0-1.1-1.1H24.1A1.1,1.1,0,0,0,23,53.1v4.409A1.1,1.1,0,0,0,24.1,58.614ZM25.2,54.2h2.2v2.2H25.2Z" transform="translate(2.149 5.116)"/>
      <path id="Trazado_872995" data-name="Trazado 872995" d="M31,52H46.432v2.2H31Z" transform="translate(2.967 5.116)"/>
      <path id="Trazado_872996" data-name="Trazado 872996" d="M47,52h2.2v2.2H47Z" transform="translate(4.604 5.116)"/>
      <path id="Trazado_872997" data-name="Trazado 872997" d="M31,56H46.432v2.2H31Z" transform="translate(2.967 5.525)"/>
      <path id="Trazado_872998" data-name="Trazado 872998" d="M47,56h2.2v2.2H47Z" transform="translate(4.604 5.525)"/>
      <path id="Trazado_872999" data-name="Trazado 872999" d="M67.213,31.773l-4.365-.728a12.623,12.623,0,0,0-.639-1.543l2.568-3.6a1.1,1.1,0,0,0-.11-1.422L59.993,19.8a1.1,1.1,0,0,0-1.422-.11l-3.6,2.568a15.682,15.682,0,0,0-1.543-.639L52.7,17.256A1.1,1.1,0,0,0,51.6,16.33H44.99a1.1,1.1,0,0,0-1.091.926l-.011.088V8.614C43.888,4.271,33.35,2,22.944,2S2,4.271,2,8.614V41.683c0,3.34,5.864,4.971,9.943,5.71A3.3,3.3,0,0,0,15.228,50.5h1.1v2.2h-1.1a3.317,3.317,0,0,0-3.307,3.307v8.818a3.317,3.317,0,0,0,3.307,3.307H54.911a3.317,3.317,0,0,0,3.307-3.307V56.013a3.317,3.317,0,0,0-3.307-3.307h-1.1V50.5h1.1a3.013,3.013,0,0,0,.551-.055l3.109,2.216a1.149,1.149,0,0,0,.639.2,1.129,1.129,0,0,0,.783-.32l4.674-4.674a1.1,1.1,0,0,0,.11-1.422l-2.568-3.6a12.622,12.622,0,0,0,.639-1.543l4.365-.728a1.1,1.1,0,0,0,.926-1.091V32.865a1.1,1.1,0,0,0-.926-1.091Zm-23.325-1.9a7.671,7.671,0,0,1,12.07,5.379,3.32,3.32,0,0,0-1.047-.187H43.888ZM22.944,4.2c12.125,0,18.739,2.91,18.739,4.409s-6.614,4.409-18.739,4.409S4.2,10.113,4.2,8.614,10.818,4.2,22.944,4.2ZM4.2,11.722c3.627,2.3,11.2,3.505,18.739,3.505s15.113-1.2,18.739-3.505v7.915c0,1.5-6.614,4.409-18.739,4.409S4.2,21.136,4.2,19.637Zm7.716,26.654v6.768C6.332,44.086,4.2,42.488,4.2,41.683V33.769a23.68,23.68,0,0,0,8.333,2.69,3.29,3.29,0,0,0-.617,1.918ZM4.2,30.66V22.745c3.627,2.3,11.2,3.505,18.739,3.505s15.113-1.2,18.739-3.505V30.66c0,1.5-6.614,4.409-18.739,4.409S4.2,32.159,4.2,30.66Zm37.479,3.109v1.3H38.949a13.745,13.745,0,0,0,2.734-1.3ZM54.911,54.911a1.1,1.1,0,0,1,1.1,1.1v8.818a1.1,1.1,0,0,1-1.1,1.1H15.228a1.1,1.1,0,0,1-1.1-1.1V56.013a1.1,1.1,0,0,1,1.1-1.1Zm-36.376-2.2V50.5h4.409v2.2Zm6.614,0V50.5H44.99v2.2Zm22.046,0V50.5H51.6v2.2Zm8.818-5.512a1.1,1.1,0,0,1-1.1,1.1H15.228a1.1,1.1,0,0,1-1.1-1.1V38.376a1.1,1.1,0,0,1,1.1-1.1H54.911a1.1,1.1,0,0,1,1.1,1.1Zm9.921-8.653-4.1.683a1.13,1.13,0,0,0-.882.772,13.018,13.018,0,0,1-.992,2.425,1.076,1.076,0,0,0,.077,1.157l2.4,3.384-3.351,3.351L57.523,49.2a3.276,3.276,0,0,0,.694-2.006V38.376a3.135,3.135,0,0,0-.11-.794,10.271,10.271,0,0,0,.11-1.411A9.9,9.9,0,0,0,43.888,27.3V23.727a5.433,5.433,0,0,1,.6-.209,1.133,1.133,0,0,0,.761-.882l.683-4.1h4.74l.683,4.1a1.13,1.13,0,0,0,.772.882,13.338,13.338,0,0,1,2.425.992,1.1,1.1,0,0,0,1.157-.077l3.384-2.4L62.44,25.38l-2.4,3.384a1.076,1.076,0,0,0-.077,1.157,13.018,13.018,0,0,1,.992,2.425,1.13,1.13,0,0,0,.882.772l4.1.683Z" transform="translate(0 0)"/>
      <path id="Trazado_873000" data-name="Trazado 873000" d="M6.2,48H4v8.818a1.1,1.1,0,0,0,1.1,1.1H9.512v-2.2H6.2Z" transform="translate(0.205 4.706)"/>
      <path id="Trazado_873001" data-name="Trazado 873001" d="M62.637,4H45V6.2H61.535V16.771l-2.984,2.984,1.559,1.559,3.307-3.307a1.1,1.1,0,0,0,.323-.779V5.1A1.1,1.1,0,0,0,62.637,4Z" transform="translate(4.399 0.205)"/>
      <path id="Trazado_873002" data-name="Trazado 873002" d="M41,4h2.2V6.2H41Z" transform="translate(3.99 0.205)"/>
      <path id="Trazado_873003" data-name="Trazado 873003" d="M4,44H6.2v2.2H4Z" transform="translate(0.205 4.297)"/>
    </g>
  </g>
</svg>
