<svg xmlns="http://www.w3.org/2000/svg" width="150" height="128" viewBox="0 0 150 128">
  <g id="Grupo_1098859" data-name="Grupo 1098859" transform="translate(-251.093 -2979.838)">
    <rect id="Rectángulo_400922" data-name="Rectángulo 400922" width="150" height="128" rx="23" transform="translate(251.093 2979.838)" fill="#f7eefe"/>
    <g id="cobro" transform="translate(257.093 2983.17)">
      <path id="Trazado_872541" data-name="Trazado 872541" d="M53.556,29.1a11.166,11.166,0,1,1-11.171-11.16A11.175,11.175,0,0,1,53.556,29.1Z" fill="#fff"/>
      <path id="Trazado_872542" data-name="Trazado 872542" d="M47.472,29.1A11.166,11.166,0,1,1,36.3,17.938,11.175,11.175,0,0,1,47.472,29.1Z" fill="#99edf2"/>
      <path id="Trazado_872543" data-name="Trazado 872543" d="M53.7,29.1h-.877a10.293,10.293,0,1,1-3.015-7.28,10.266,10.266,0,0,1,3.015,7.28h1.754A12.037,12.037,0,1,0,42.538,41.137,12.036,12.036,0,0,0,54.575,29.1Z" fill="#4529c7"/>
      <path id="Trazado_872544" data-name="Trazado 872544" d="M61.91,63.358l9.275-16.521h28.34l-11.6,22.332-20.172-.307V63.556Z" fill="#99edf2"/>
      <path id="Trazado_872545" data-name="Trazado 872545" d="M26.51,70.4s-.011-.11-.033-.318c-.055-.636-.175-2.193-.175-4.2a34.28,34.28,0,0,1,1.82-11.829,11.418,11.418,0,0,1,3.07-4.6A7.706,7.706,0,0,1,36.4,47.637a13.371,13.371,0,0,1,2.664.3l.186-.855-.647.592L53.293,63.753h13a1,1,0,0,1,1,1v4.966a1,1,0,0,1-1,1H48.94l-9.275-12.07a.876.876,0,0,0-1.392,1.063l9.79,12.761H66.284a2.746,2.746,0,0,0,2.752-2.752V64.75A2.754,2.754,0,0,0,66.284,62H54.06L39.7,46.278l-.274-.055a14.467,14.467,0,0,0-3.037-.34,9.491,9.491,0,0,0-6.337,2.225c-2.445,2.083-3.782,5.24-4.55,8.5a41.578,41.578,0,0,0-.965,9.286,43.787,43.787,0,0,0,.219,4.714.882.882,0,0,0,.965.778A.9.9,0,0,0,26.51,70.4Z" fill="#4529c7"/>
      <path id="Trazado_872546" data-name="Trazado 872546" d="M58.237,57.636l7.795-11.818a1.306,1.306,0,0,1,1.1-.592H92.1l.055.022.022.066-.011.044L80.941,65.814H74.648a.877.877,0,0,0,0,1.754h7.323L93.7,46.2a1.827,1.827,0,0,0-1.612-2.708H67.117a3.035,3.035,0,0,0-2.554,1.381L56.768,56.693a.883.883,0,0,0,.252,1.217A.918.918,0,0,0,58.237,57.636Z" fill="#4529c7"/>
      <path id="Trazado_872547" data-name="Trazado 872547" d="M40.97,72.457h70.515a.877.877,0,0,0,0-1.754H40.97a.877.877,0,1,0,0,1.754Z" fill="#4529c7"/>
      <path id="Trazado_872548" data-name="Trazado 872548" d="M37.9,79.342H20.5a1.511,1.511,0,0,0-1.5,1.5v21.805a1.619,1.619,0,0,0,1.622,1.623H43.853a1.937,1.937,0,0,0,1.94-1.941V93.517a.877.877,0,1,0-1.754,0v8.814a.185.185,0,0,1-.186.187H20.622v.131h.132l-.132-.131v.131h.132V80.844H20.5V81.1a.248.248,0,0,0,.252-.252H20.5V81.1H37.9a.877.877,0,1,0,0-1.754Z" fill="#4529c7"/>
      <path id="Trazado_872549" data-name="Trazado 872549" d="M73.246,79.343H55.99a1.638,1.638,0,0,0-1.633,1.634v21.181a2.11,2.11,0,0,0,2.116,2.116H79.265a1.9,1.9,0,0,0,1.9-1.9V93.507a.877.877,0,1,0-1.754,0v8.869l-.142.143H56.472a.365.365,0,0,1-.362-.362V80.976H55.99V81.1l.121-.121H55.99V81.1H73.246a.877.877,0,1,0,0-1.754Z" fill="#4529c7"/>
      <path id="Trazado_872550" data-name="Trazado 872550" d="M115.716,103.395v-.877H92.485a.33.33,0,0,1-.329-.329V81.03h-.066V81.1l.066-.066h-.066V81.1h22.945a.412.412,0,0,1,.406.406v21.29h.274v-.274a.271.271,0,0,0-.274.274h.274v1.48a1.474,1.474,0,0,0,1.48-1.48V81.5a2.157,2.157,0,0,0-2.16-2.16H92.091A1.689,1.689,0,0,0,90.4,81.03v21.159a2.082,2.082,0,0,0,2.083,2.083h23.231Z" fill="#4529c7"/>
      <path id="Trazado_872551" data-name="Trazado 872551" d="M61,92.586l6.83,6.15,14.548-16.51a1.058,1.058,0,0,0-.1-1.491,1.044,1.044,0,0,0-1.48.1L67.665,95.743l-5.251-4.725A1.056,1.056,0,1,0,61,92.586Z" fill="#9954ff"/>
      <path id="Trazado_872552" data-name="Trazado 872552" d="M25.608,92.077l6.83,6.15,14.548-16.51a1.058,1.058,0,0,0-.1-1.491,1.044,1.044,0,0,0-1.48.1L32.274,95.235l-5.251-4.725a1.056,1.056,0,0,0-1.414,1.568Z" fill="#9954ff"/>
    </g>
  </g>
</svg>
