<svg xmlns="http://www.w3.org/2000/svg" width="150" height="128" viewBox="0 0 150 128">
  <g id="Grupo_1098858" data-name="Grupo 1098858" transform="translate(-566.093 -2979.838)">
    <rect id="Rectángulo_400923" data-name="Rectángulo 400923" width="150" height="128" rx="23" transform="translate(566.093 2979.838)" fill="#f7eefe"/>
    <g id="analisis-de-informacion" transform="translate(564.958 2986.344)">
      <path id="Trazado_872557" data-name="Trazado 872557" d="M110.565,69.985H47.519a2.335,2.335,0,0,1-2.334-2.322V23.576a2.328,2.328,0,0,1,2.334-2.322h63.046a2.335,2.335,0,0,1,2.334,2.322V67.651A2.338,2.338,0,0,1,110.565,69.985Z" fill="#fff"/>
      <path id="Trazado_872558" data-name="Trazado 872558" d="M47.52,22.039a1.54,1.54,0,0,0-1.536,1.536V67.65a1.54,1.54,0,0,0,1.536,1.536h63.046A1.539,1.539,0,0,0,112.1,67.65V23.563a1.539,1.539,0,0,0-1.536-1.536H47.52ZM110.565,70.77H47.52a3.133,3.133,0,0,1-3.132-3.12V23.563a3.126,3.126,0,0,1,3.132-3.12h63.046a3.133,3.133,0,0,1,3.132,3.12V67.65A3.126,3.126,0,0,1,110.565,70.77Z" fill="#4529c7"/>
      <path id="Trazado_872559" data-name="Trazado 872559" d="M89.165,76.475H86.092V70.163H72.183v6.312H69.694a3.858,3.858,0,0,0-3.882,3.835v.619H93.047V80.31A3.858,3.858,0,0,0,89.165,76.475Z" fill="#fff"/>
      <path id="Trazado_872560" data-name="Trazado 872560" d="M66.609,80.131H92.237a3.065,3.065,0,0,0-3.073-2.858h-3.87V70.961H72.98v6.312H69.694A3.06,3.06,0,0,0,66.609,80.131Zm27.224,1.584H65.013V80.3a4.663,4.663,0,0,1,4.68-4.633h1.691V69.354H86.89v6.312h2.274a4.656,4.656,0,0,1,4.68,4.633v1.417Z" fill="#4529c7"/>
      <path id="Trazado_872561" data-name="Trazado 872561" d="M113.268,18.384H50.687a2.658,2.658,0,0,0-2.656,2.656V64.662a2.658,2.658,0,0,0,2.656,2.656H75.065v6.419h-2.5a3.9,3.9,0,0,0-3.906,3.894v.631H96.072v-.631a3.9,3.9,0,0,0-3.906-3.894h-3.1V67.317h24.2a2.658,2.658,0,0,0,2.656-2.656V21.039A2.658,2.658,0,0,0,113.268,18.384Z" fill="#99edf2"/>
      <path id="Trazado_872562" data-name="Trazado 872562" d="M47.52,22.039a1.54,1.54,0,0,0-1.536,1.536V67.65a1.54,1.54,0,0,0,1.536,1.536h63.046A1.539,1.539,0,0,0,112.1,67.65V23.563a1.539,1.539,0,0,0-1.536-1.536H47.52ZM110.565,70.77H47.52a3.133,3.133,0,0,1-3.132-3.12V23.563a3.126,3.126,0,0,1,3.132-3.12h63.046a3.133,3.133,0,0,1,3.132,3.12V67.65A3.126,3.126,0,0,1,110.565,70.77Z" fill="#4529c7"/>
      <path id="Trazado_872563" data-name="Trazado 872563" d="M106.1,60.314H53.069a1.743,1.743,0,0,1-1.751-1.739V29.447a1.743,1.743,0,0,1,1.751-1.739H106.1a1.743,1.743,0,0,1,1.751,1.739V58.576A1.743,1.743,0,0,1,106.1,60.314Z" fill="#fff"/>
      <path id="Trazado_872564" data-name="Trazado 872564" d="M53.081,28.506a.945.945,0,0,0-.953.941V58.576a.945.945,0,0,0,.953.941h53.03a.953.953,0,0,0,.953-.941V29.447a.946.946,0,0,0-.953-.941ZM106.1,61.112H53.069a2.541,2.541,0,0,1-2.548-2.537V29.447a2.549,2.549,0,0,1,2.548-2.537H106.1a2.531,2.531,0,0,1,2.537,2.537V58.576A2.523,2.523,0,0,1,106.1,61.112Z" fill="#9954ff"/>
      <path id="Trazado_872565" data-name="Trazado 872565" d="M66.609,80.131H92.237a3.065,3.065,0,0,0-3.073-2.858h-3.87V70.961H72.98v6.312H69.694A3.06,3.06,0,0,0,66.609,80.131Zm27.224,1.584H65.013V80.3a4.663,4.663,0,0,1,4.68-4.633h1.691V69.354H86.89v6.312h2.274a4.656,4.656,0,0,1,4.68,4.633v1.417Z" fill="#4529c7"/>
      <path id="Trazado_872566" data-name="Trazado 872566" d="M79.125,64.232a1,1,0,1,0,1.012,1A1.009,1.009,0,0,0,79.125,64.232Zm0,3.6a2.6,2.6,0,1,1,2.6-2.6A2.613,2.613,0,0,1,79.125,67.829Z" fill="#9954ff"/>
      <path id="Trazado_872567" data-name="Trazado 872567" d="M92.94,107.188H91.582a5.054,5.054,0,0,1-5.049-5.061V96.482a5.062,5.062,0,0,1,5.049-5.061H92.94a5.055,5.055,0,0,1,5.049,5.061v5.645A5.054,5.054,0,0,1,92.94,107.188Z" fill="#fff"/>
      <path id="Trazado_872568" data-name="Trazado 872568" d="M91.582,92.219a4.264,4.264,0,0,0-4.251,4.263v5.645a4.264,4.264,0,0,0,4.251,4.263H92.94a4.264,4.264,0,0,0,4.251-4.263V96.482a4.264,4.264,0,0,0-4.251-4.263Zm1.358,15.767H91.582a5.85,5.85,0,0,1-5.847-5.847V96.494a5.86,5.86,0,0,1,5.847-5.859H92.94a5.86,5.86,0,0,1,5.847,5.859v5.645A5.858,5.858,0,0,1,92.94,107.986Z" fill="#4529c7"/>
      <path id="Trazado_872569" data-name="Trazado 872569" d="M94.321,105.64H92.94a5.112,5.112,0,0,1-5.121-5.12v-5.7a5.128,5.128,0,0,1,5.121-5.121h1.381a5.113,5.113,0,0,1,5.121,5.121v5.7A5.12,5.12,0,0,1,94.321,105.64Z" fill="#99edf2"/>
      <path id="Trazado_872570" data-name="Trazado 872570" d="M98.073,98.375H86.45v-1.6h5.014V91.337h1.6v5.442h5.014Z" fill="#9954ff"/>
      <path id="Trazado_872571" data-name="Trazado 872571" d="M93.131,91.242h-1.6a3.443,3.443,0,0,1,3.454-3.43h18.732a2.966,2.966,0,1,0,0-5.931H93.2v-1.6h20.519a4.55,4.55,0,1,1,0,9.1H94.989A1.9,1.9,0,0,0,93.131,91.242Z" fill="#4529c7"/>
      <path id="Trazado_872572" data-name="Trazado 872572" d="M52.128,55.825h-1.6V50.156h1.6Zm10.98,5.287H59.464v-1.6h3.644Z" fill="#9954ff"/>
      <path id="Trazado_872573" data-name="Trazado 872573" d="M83.151,40.5H81a.8.8,0,0,1,0-1.6h2.156a.8.8,0,0,1,0,1.6Zm14.279,0H87.367a.8.8,0,0,1,0-1.6H97.429a.8.8,0,1,1,0,1.6ZM75.97,47.1H69.884a.8.8,0,0,1,0-1.6H75.97a.8.8,0,0,1,0,1.6Zm15.839,0H84.878a.8.8,0,1,1,0-1.6h6.931a.8.8,0,0,1,0,1.6Zm-.893,5.728H88.76a.8.8,0,1,1,0-1.6h2.155a.8.8,0,1,1,0,1.6Zm11.159,0H95.143a.8.8,0,0,1,0-1.6h6.931a.8.8,0,1,1,0,1.6Z" fill="#9954ff"/>
      <path id="Trazado_872574" data-name="Trazado 872574" d="M91.5,92.1a4.307,4.307,0,0,0-4.311,4.3v5.692a4.307,4.307,0,0,0,4.311,4.3h1.369a4.307,4.307,0,0,0,4.311-4.3V96.4a4.307,4.307,0,0,0-4.311-4.3Zm1.381,15.886H91.511a5.9,5.9,0,0,1-5.907-5.895V96.4A5.911,5.911,0,0,1,91.511,90.5h1.369A5.911,5.911,0,0,1,98.788,96.4v5.692A5.911,5.911,0,0,1,92.881,107.986Z" fill="#4529c7"/>
      <path id="Trazado_872575" data-name="Trazado 872575" d="M46.007,43.8a16.4,16.4,0,1,1,16.4-16.4A16.421,16.421,0,0,1,46.007,43.8Zm0-30.582A14.183,14.183,0,1,0,60.19,27.4,14.2,14.2,0,0,0,46.007,13.215Z" fill="#4529c7"/>
      <path id="Trazado_872576" data-name="Trazado 872576" d="M20.939,56.849a1.975,1.975,0,0,1-1.393-.572l-1.965-1.965a1.962,1.962,0,0,1,0-2.787L29.668,39.45a1.962,1.962,0,0,1,2.787,0l.226.226,2-2.1a1.1,1.1,0,1,1,1.6,1.524l-2.036,2.12.179.179A1.975,1.975,0,0,1,35,42.8a1.926,1.926,0,0,1-.584,1.393L22.332,56.266A1.918,1.918,0,0,1,20.939,56.849Zm-1.62-3.93,1.62,1.62L32.681,42.8l-1.62-1.62Zm38.025-27.14a1.118,1.118,0,0,1-1.084-.869,10.742,10.742,0,0,0-5.3-7.133,1.1,1.1,0,0,1,1.072-1.929,12.987,12.987,0,0,1,6.4,8.6,1.1,1.1,0,0,1-.846,1.31A.811.811,0,0,1,57.344,25.779Zm-8.705-9.051a1.778,1.778,0,0,1-.25-.024,9.44,9.44,0,0,0-2.62-.25,1.108,1.108,0,1,1,0-2.215,11.116,11.116,0,0,1,3.108.31,1.1,1.1,0,0,1,.834,1.322A1.084,1.084,0,0,1,48.639,16.728Z" fill="#4529c7"/>
    </g>
  </g>
</svg>
