<svg xmlns="http://www.w3.org/2000/svg" xmlns:xlink="http://www.w3.org/1999/xlink" width="114" height="96" viewBox="0 0 114 96">
  <defs>
    <clipPath id="clip-path">
      <path id="path3529" d="M0-682.665H84v84H0Z" transform="translate(0 682.665)"/>
    </clipPath>
  </defs>
  <g id="Grupo_1098840" data-name="Grupo 1098840" transform="translate(-319 -1256)">
    <rect id="Rectángulo_400909" data-name="Rectángulo 400909" width="114" height="96" rx="12" transform="translate(319 1256)" fill="#f0c518"/>
    <g id="g3519" transform="translate(334 1944.665)">
      <g id="g3521" transform="translate(30.215 -620.422)">
        <path id="path3523" d="M-157.806,0h-20.714l-1.428,9.587h23.571Z" transform="translate(179.948)" fill="#495560"/>
      </g>
      <g id="g3525" transform="translate(0 -682.665)">
        <g id="g3527" transform="translate(0 0)" clip-path="url(#clip-path)">
          <g id="g3533" transform="translate(24.321 71.83)">
            <path id="path3535" d="M-237.446-46.147h-31.275a2.04,2.04,0,0,1-1.957-2.616l.284-.966a4.031,4.031,0,0,1,3.867-2.893h26.886a4.031,4.031,0,0,1,3.867,2.893l.284.966a2.04,2.04,0,0,1-1.957,2.616" transform="translate(270.763 52.623)" fill="#c7c7c7"/>
          </g>
          <g id="g3537" transform="translate(24.321 71.83)">
            <path id="path3539" d="M-106.368,0h-10.689a4.031,4.031,0,0,0-3.867,2.893l-.284.966a2.04,2.04,0,0,0,1.957,2.616h14.485A7.45,7.45,0,0,1-106.368,0" transform="translate(121.293)" fill="#98a5b3"/>
          </g>
          <g id="g3541" transform="translate(1.23 5.694)">
            <path id="path3543" d="M-511.814-403.019H-573.9a9.725,9.725,0,0,1-9.725-9.725v-37.1a9.725,9.725,0,0,1,9.725-9.725h62.088a9.725,9.725,0,0,1,9.725,9.725v37.1a9.725,9.725,0,0,1-9.725,9.725" transform="translate(583.628 459.567)" fill="#495560"/>
          </g>
          <g id="g3545" transform="translate(1.23 5.695)">
            <path id="path3547" d="M-187.686,0H-204.3a9.725,9.725,0,0,0-9.725,9.725v37.1a9.725,9.725,0,0,0,9.725,9.725h23.954c-9.244-9.674-13.313-36.831-7.344-56.548" transform="translate(214.021)" fill="#333941"/>
          </g>
          <g id="g3549" transform="translate(7.882 12.346)">
            <path id="path3551" d="M0-277.558V-312.2a4.3,4.3,0,0,1,4.3-4.3H63.935a4.3,4.3,0,0,1,4.3,4.3v34.645a4.3,4.3,0,0,1-4.3,4.3H4.3a4.3,4.3,0,0,1-4.3-4.3" transform="translate(0 316.503)" fill="#faef81"/>
          </g>
          <g id="g3553" transform="translate(7.882 12.346)">
            <path id="path3555" d="M-161.277-308.2c-5.184-10.776-7.288-28.217-4.541-43.245h-13.788a4.3,4.3,0,0,0-4.3,4.3V-312.5a4.3,4.3,0,0,0,4.3,4.3Z" transform="translate(183.906 351.448)" fill="#fad271"/>
          </g>
          <g id="g3557" transform="translate(42 12.346)">
            <path id="path3559" d="M-212.511,0h-29.818V43.245h29.818a4.3,4.3,0,0,0,4.3-4.3V4.3a4.3,4.3,0,0,0-4.3-4.3" transform="translate(242.329)" fill="#333941"/>
          </g>
          <g id="g3561" transform="translate(1.23 49.796)">
            <path id="path3563" d="M0,0V2.721a9.725,9.725,0,0,0,9.725,9.725H71.814a9.725,9.725,0,0,0,9.725-9.725V0Z" fill="#c7c7c7"/>
          </g>
          <g id="g3565" transform="translate(1.23 49.796)">
            <path id="path3567" d="M0,0V2.721a9.725,9.725,0,0,0,9.725,9.725H33.679C30.959,9.6,28.687,5.24,26.987,0Z" fill="#98a5b3"/>
          </g>
          <g id="g3569" transform="translate(38.444 52.464)">
            <path id="path3571" d="M-50.683-25.342a3.556,3.556,0,0,1-3.556,3.556,3.556,3.556,0,0,1-3.556-3.556A3.556,3.556,0,0,1-54.239-28.9a3.556,3.556,0,0,1,3.556,3.556" transform="translate(57.795 28.897)" fill="#fff"/>
          </g>
          <g id="g3573" transform="translate(62.578 34.356)">
            <path id="path3575" d="M-3.879-7.539H-8.769A1.23,1.23,0,0,1-10-8.77,1.23,1.23,0,0,1-8.769-10h4.891a1.23,1.23,0,0,1,1.23,1.23A1.23,1.23,0,0,1-3.879-7.539Z" transform="translate(10 10)" fill="#fff"/>
          </g>
          <g id="g3577" transform="translate(48.188 34.356)">
            <path id="path3579" d="M1.207-7.539H-8.77A1.23,1.23,0,0,1-10-8.769,1.23,1.23,0,0,1-8.77-10H1.207a1.23,1.23,0,0,1,1.23,1.23A1.23,1.23,0,0,1,1.207-7.539Z" transform="translate(10 10)" fill="#84dfff"/>
          </g>
          <g id="g3581" transform="translate(57.053 38.831)">
            <path id="path3583" d="M-2.684-7.539H-8.77A1.23,1.23,0,0,1-10-8.77,1.23,1.23,0,0,1-8.77-10h6.085a1.23,1.23,0,0,1,1.23,1.23A1.23,1.23,0,0,1-2.684-7.539Z" transform="translate(10 10)" fill="#84dfff"/>
          </g>
          <g id="g3585" transform="translate(48.188 38.831)">
            <path id="path3587" d="M-4.318-7.539H-8.77A1.23,1.23,0,0,1-10-8.77,1.23,1.23,0,0,1-8.77-10h4.451a1.23,1.23,0,0,1,1.23,1.23A1.23,1.23,0,0,1-4.318-7.539Z" transform="translate(10 10)" fill="#fff"/>
          </g>
          <g id="g3589" transform="translate(56.743 29.882)">
            <path id="path3591" d="M.259-7.539H-8.77A1.23,1.23,0,0,1-10-8.769,1.23,1.23,0,0,1-8.77-10H.259a1.23,1.23,0,0,1,1.23,1.23A1.23,1.23,0,0,1,.259-7.539Z" transform="translate(10 10)" fill="#55d57b"/>
          </g>
          <g id="g3593" transform="translate(48.188 29.882)">
            <path id="path3595" d="M-4.628-7.539H-8.77A1.23,1.23,0,0,1-10-8.77,1.23,1.23,0,0,1-8.77-10h4.141A1.23,1.23,0,0,1-3.4-8.77,1.23,1.23,0,0,1-4.628-7.539Z" transform="translate(10 10)" fill="#ff8aa0"/>
          </g>
          <g id="g3597" transform="translate(62.304 25.407)">
            <path id="path3599" d="M-3.6-7.539H-8.77A1.23,1.23,0,0,1-10-8.77,1.23,1.23,0,0,1-8.77-10H-3.6a1.23,1.23,0,0,1,1.23,1.23A1.23,1.23,0,0,1-3.6-7.539Z" transform="translate(10 10)" fill="#ff8aa0"/>
          </g>
          <g id="g3601" transform="translate(48.188 25.407)">
            <path id="path3603" d="M.933-7.539h-9.7A1.23,1.23,0,0,1-10-8.769,1.23,1.23,0,0,1-8.77-10h9.7a1.23,1.23,0,0,1,1.23,1.23A1.23,1.23,0,0,1,.933-7.539Z" transform="translate(10 10)" fill="#fff"/>
          </g>
          <g id="g3605" transform="translate(57.053 20.932)">
            <path id="path3607" d="M-3.27-7.539h-5.5A1.23,1.23,0,0,1-10-8.77,1.23,1.23,0,0,1-8.77-10h5.5A1.23,1.23,0,0,1-2.04-8.77,1.23,1.23,0,0,1-3.27-7.539Z" transform="translate(10 10)" fill="#55d57b"/>
          </g>
          <g id="g3609" transform="translate(48.188 20.932)">
            <path id="path3611" d="M-4.318-7.539H-8.77A1.23,1.23,0,0,1-10-8.77,1.23,1.23,0,0,1-8.77-10h4.451a1.23,1.23,0,0,1,1.23,1.23A1.23,1.23,0,0,1-4.318-7.539Z" transform="translate(10 10)" fill="#84dfff"/>
          </g>
          <g id="g3613" transform="translate(6.652 11.116)">
            <path id="path3615" d="M59.466-274.443a1.23,1.23,0,0,1-1.23-1.23v-33.15a3.073,3.073,0,0,0-3.069-3.069H-4.47a3.073,3.073,0,0,0-3.069,3.069v33.15a1.23,1.23,0,0,1-1.23,1.23,1.23,1.23,0,0,1-1.23-1.23v-33.15a5.537,5.537,0,0,1,5.53-5.53H55.166a5.537,5.537,0,0,1,5.53,5.53v33.15A1.23,1.23,0,0,1,59.466-274.443Z" transform="translate(10 314.354)"/>
          </g>
          <g id="g3617" transform="translate(0 4.464)">
            <path id="path3619" d="M-446.974,48.179a1.226,1.226,0,0,1-.5-.106,10.969,10.969,0,0,1-6.519-10.02V.956A10.968,10.968,0,0,1-443.035-10h44.906a1.23,1.23,0,0,1,1.23,1.23,1.23,1.23,0,0,1-1.23,1.23h-44.906A8.5,8.5,0,0,0-451.53.956v37.1a8.506,8.506,0,0,0,5.055,7.77,1.23,1.23,0,0,1,.626,1.624A1.231,1.231,0,0,1-446.974,48.179Z" transform="translate(453.991 10)"/>
          </g>
          <g id="g3621" transform="translate(11.527 4.464)">
            <path id="path3623" d="M51.518-410.558H-8.769a1.23,1.23,0,0,1-1.23-1.23,1.23,1.23,0,0,1,1.23-1.23H51.518a8.5,8.5,0,0,0,8.495-8.495v-37.1a8.5,8.5,0,0,0-8.495-8.495H40.526a1.23,1.23,0,0,1-1.23-1.23,1.231,1.231,0,0,1,1.23-1.23H51.518a10.968,10.968,0,0,1,10.956,10.956v37.1A10.968,10.968,0,0,1,51.518-410.558Z" transform="translate(10 469.567)"/>
          </g>
          <g id="g3625" transform="translate(0 48.566)">
            <path id="path3627" d="M72.769-7.539H-8.77A1.23,1.23,0,0,1-10-8.77,1.23,1.23,0,0,1-8.77-10H72.769A1.23,1.23,0,0,1,74-8.77,1.23,1.23,0,0,1,72.769-7.539Z" transform="translate(10 10)"/>
          </g>
          <g id="g3629" transform="translate(28.984 61.012)">
            <path id="path3631" d="M-8.769-75.87a1.241,1.241,0,0,1-.183-.014,1.23,1.23,0,0,1-1.036-1.4l1.428-9.587a1.23,1.23,0,0,1,1.4-1.036,1.23,1.23,0,0,1,1.036,1.4l-1.428,9.587A1.231,1.231,0,0,1-8.769-75.87Z" transform="translate(10.001 87.918)"/>
          </g>
          <g id="g3633" transform="translate(51.126 61.012)">
            <path id="path3635" d="M-7.344,2.047A1.231,1.231,0,0,1-8.559,1L-9.988-8.589a1.23,1.23,0,0,1,1.036-1.4,1.23,1.23,0,0,1,1.4,1.036L-6.125.635a1.23,1.23,0,0,1-1.036,1.4A1.241,1.241,0,0,1-7.344,2.047Z" transform="translate(10.001 10.001)"/>
          </g>
          <g id="g3637" transform="translate(23.089 70.6)">
            <path id="path3639" d="M7.95-53.687H-23.326A3.242,3.242,0,0,1-25.944-55a3.242,3.242,0,0,1-.519-2.882l.285-.966a5.291,5.291,0,0,1,5.047-3.776H5.755A5.291,5.291,0,0,1,10.8-58.847l.284.966A3.242,3.242,0,0,1,10.569-55,3.242,3.242,0,0,1,7.95-53.687Zm-29.081-6.475a2.816,2.816,0,0,0-2.687,2.01l-.285.966a.8.8,0,0,0,.128.713.794.794,0,0,0,.648.325H7.95a.794.794,0,0,0,.648-.325.8.8,0,0,0,.128-.713l-.284-.966a2.816,2.816,0,0,0-2.687-2.01Z" transform="translate(26.598 62.623)"/>
          </g>
          <g id="g3641" transform="translate(13.237 24.711)">
            <path id="path3643" d="M-44.9,2.6a1.226,1.226,0,0,1-.87-.36l-5.07-5.07a1.23,1.23,0,0,1,0-1.74l5.07-5.07a1.23,1.23,0,0,1,1.74,0,1.23,1.23,0,0,1,0,1.74l-4.2,4.2,4.2,4.2a1.23,1.23,0,0,1,0,1.74A1.227,1.227,0,0,1-44.9,2.6Z" transform="translate(51.203 10)"/>
          </g>
          <g id="g3645" transform="translate(29.114 24.711)">
            <path id="path3647" d="M-8.77,2.6a1.227,1.227,0,0,1-.87-.36A1.23,1.23,0,0,1-9.64.5l4.2-4.2-4.2-4.2a1.23,1.23,0,0,1,0-1.74,1.23,1.23,0,0,1,1.74,0l5.07,5.07a1.23,1.23,0,0,1,0,1.74L-7.9,2.24A1.227,1.227,0,0,1-8.77,2.6Z" transform="translate(10 10)"/>
          </g>
          <g id="g3649" transform="translate(20.863 21.958)">
            <path id="path3651" d="M-8.772-119.054a1.228,1.228,0,0,1-.421-.075,1.23,1.23,0,0,1-.735-1.577l5.695-15.647a1.23,1.23,0,0,1,1.577-.735,1.23,1.23,0,0,1,.735,1.577l-5.695,15.647A1.231,1.231,0,0,1-8.772-119.054Z" transform="translate(10.003 137.162)"/>
          </g>
        </g>
      </g>
    </g>
  </g>
</svg>
