<svg xmlns="http://www.w3.org/2000/svg" width="85" height="38" viewBox="0 0 85 38">
  <g id="Grupo_1098771" data-name="Grupo 1098771" transform="translate(1428.006 9481.472)">
    <g id="Grupo_1098767" data-name="Grupo 1098767" transform="translate(-1608.006 -10555.472)">
      <circle id="Elipse_9675" data-name="Elipse 9675" cx="3" cy="3" r="3" transform="translate(180 1074)" fill="#a854f3"/>
      <circle id="Elipse_9676" data-name="Elipse 9676" cx="3" cy="3" r="3" transform="translate(195 1074)" fill="#a854f3"/>
      <circle id="Elipse_9677" data-name="Elipse 9677" cx="3" cy="3" r="3" transform="translate(212 1074)" fill="#a854f3"/>
      <circle id="Elipse_9678" data-name="Elipse 9678" cx="3" cy="3" r="3" transform="translate(227 1074)" fill="#a854f3"/>
      <circle id="Elipse_9679" data-name="Elipse 9679" cx="3" cy="3" r="3" transform="translate(244 1074)" fill="#a854f3"/>
      <circle id="Elipse_9680" data-name="Elipse 9680" cx="3" cy="3" r="3" transform="translate(259 1074)" fill="#a854f3"/>
    </g>
    <g id="Grupo_1098768" data-name="Grupo 1098768" transform="translate(-1608.006 -10539.472)">
      <circle id="Elipse_9675-2" data-name="Elipse 9675" cx="3" cy="3" r="3" transform="translate(180 1074)" fill="#a854f3"/>
      <circle id="Elipse_9676-2" data-name="Elipse 9676" cx="3" cy="3" r="3" transform="translate(195 1074)" fill="#a854f3"/>
      <circle id="Elipse_9677-2" data-name="Elipse 9677" cx="3" cy="3" r="3" transform="translate(212 1074)" fill="#a854f3"/>
      <circle id="Elipse_9678-2" data-name="Elipse 9678" cx="3" cy="3" r="3" transform="translate(227 1074)" fill="#a854f3"/>
      <circle id="Elipse_9679-2" data-name="Elipse 9679" cx="3" cy="3" r="3" transform="translate(244 1074)" fill="#a854f3"/>
      <circle id="Elipse_9680-2" data-name="Elipse 9680" cx="3" cy="3" r="3" transform="translate(259 1074)" fill="#a854f3"/>
    </g>
    <g id="Grupo_1098769" data-name="Grupo 1098769" transform="translate(-1608.006 -10523.472)">
      <circle id="Elipse_9675-3" data-name="Elipse 9675" cx="3" cy="3" r="3" transform="translate(180 1074)" fill="#a854f3"/>
      <circle id="Elipse_9676-3" data-name="Elipse 9676" cx="3" cy="3" r="3" transform="translate(195 1074)" fill="#a854f3"/>
      <circle id="Elipse_9677-3" data-name="Elipse 9677" cx="3" cy="3" r="3" transform="translate(212 1074)" fill="#a854f3"/>
      <circle id="Elipse_9678-3" data-name="Elipse 9678" cx="3" cy="3" r="3" transform="translate(227 1074)" fill="#a854f3"/>
      <circle id="Elipse_9679-3" data-name="Elipse 9679" cx="3" cy="3" r="3" transform="translate(244 1074)" fill="#a854f3"/>
      <circle id="Elipse_9680-3" data-name="Elipse 9680" cx="3" cy="3" r="3" transform="translate(259 1074)" fill="#a854f3"/>
    </g>
  </g>
</svg>
