<svg xmlns="http://www.w3.org/2000/svg" xmlns:xlink="http://www.w3.org/1999/xlink" width="295" height="659.461" viewBox="0 0 295 659.461">
  <defs>
    <clipPath id="clip-path">
      <rect id="Rectángulo_401205" data-name="Rectángulo 401205" width="167.933" height="154.5" fill="none"/>
    </clipPath>
    <clipPath id="clip-path-2">
      <rect id="Rectángulo_401196" data-name="Rectángulo 401196" width="280.128" height="586.892" fill="none"/>
    </clipPath>
  </defs>
  <g id="Grupo_1098904" data-name="Grupo 1098904" transform="translate(-1125 -2991.715)">
    <rect id="Rectángulo_400945" data-name="Rectángulo 400945" width="242" height="582.211" rx="11" transform="translate(1125 3068.965)" fill="#aec4fa"/>
    <g id="Grupo_1098903" data-name="Grupo 1098903" transform="translate(1136 2991.715)">
      <g id="Grupo_1098902" data-name="Grupo 1098902" transform="translate(0 0)" clip-path="url(#clip-path)">
        <path id="Trazado_873521" data-name="Trazado 873521" d="M156.514,154.5H7.482a4.225,4.225,0,0,1-4.224-4.224V4.224A4.225,4.225,0,0,1,7.482,0H156.514a4.225,4.225,0,0,1,4.224,4.224V150.275a4.225,4.225,0,0,1-4.224,4.224" transform="translate(2.567 0)" fill="#0b47db"/>
        <line id="Línea_586" data-name="Línea 586" x2="157.48" transform="translate(5.824 51.635)" fill="none" stroke="#aec4fa" stroke-miterlimit="10" stroke-width="1.96"/>
        <line id="Línea_587" data-name="Línea 587" x2="157.48" transform="translate(5.824 99.963)" fill="none" stroke="#aec4fa" stroke-miterlimit="10" stroke-width="1.96"/>
        <path id="Trazado_873522" data-name="Trazado 873522" d="M43.63,22.145A13.135,13.135,0,1,1,30.5,9.01,13.135,13.135,0,0,1,43.63,22.145" transform="translate(13.676 7.098)" fill="#00ffdf"/>
        <path id="Trazado_873523" data-name="Trazado 873523" d="M43.63,48.117A13.135,13.135,0,1,1,30.5,34.982,13.134,13.134,0,0,1,43.63,48.117" transform="translate(13.676 27.557)" fill="#00ffdf"/>
        <path id="Trazado_873524" data-name="Trazado 873524" d="M43.63,75.07A13.135,13.135,0,1,1,30.5,61.935,13.135,13.135,0,0,1,43.63,75.07" transform="translate(13.676 48.79)" fill="#00ffdf"/>
        <line id="Línea_588" data-name="Línea 588" x2="67.633" transform="translate(65.066 23.558)" fill="none" stroke="#fff" stroke-linecap="round" stroke-linejoin="round" stroke-width="0.98"/>
        <line id="Línea_589" data-name="Línea 589" x2="17.418" transform="translate(65.25 32.746)" fill="none" stroke="#fff" stroke-linecap="round" stroke-linejoin="round" stroke-width="0.98"/>
        <line id="Línea_590" data-name="Línea 590" x2="67.633" transform="translate(65.066 70.478)" fill="none" stroke="#fff" stroke-linecap="round" stroke-linejoin="round" stroke-width="0.98"/>
        <line id="Línea_591" data-name="Línea 591" x2="35.845" transform="translate(65.066 79.666)" fill="none" stroke="#fff" stroke-linecap="round" stroke-linejoin="round" stroke-width="0.98"/>
        <line id="Línea_592" data-name="Línea 592" x2="25.658" transform="translate(65.25 119.149)" fill="none" stroke="#fff" stroke-linecap="round" stroke-linejoin="round" stroke-width="0.98"/>
        <line id="Línea_593" data-name="Línea 593" x2="67.633" transform="translate(65.066 128.337)" fill="none" stroke="#fff" stroke-linecap="round" stroke-linejoin="round" stroke-width="0.98"/>
        <path id="Trazado_873525" data-name="Trazado 873525" d="M21.761,19.469l3.724,2.539L32.3,14.163" transform="translate(17.142 11.157)" fill="none" stroke="#fff" stroke-linecap="round" stroke-linejoin="round" stroke-width="1.22"/>
        <path id="Trazado_873526" data-name="Trazado 873526" d="M21.761,45.379l3.724,2.539L32.3,40.073" transform="translate(17.142 31.567)" fill="none" stroke="#fff" stroke-linecap="round" stroke-linejoin="round" stroke-width="1.22"/>
        <path id="Trazado_873527" data-name="Trazado 873527" d="M21.761,72.394l3.724,2.539L32.3,67.088" transform="translate(17.142 52.849)" fill="none" stroke="#fff" stroke-linecap="round" stroke-linejoin="round" stroke-width="1.22"/>
      </g>
    </g>
    <g id="Grupo_1098897" data-name="Grupo 1098897" transform="translate(1139.872 3064)">
      <g id="Grupo_1098896" data-name="Grupo 1098896" clip-path="url(#clip-path-2)">
        <path id="Trazado_873389" data-name="Trazado 873389" d="M167.088,335.06l5.378,18.57c-6.484,5.452-12.868,4.8-19.227,2.553l-6.518-17.828Z" transform="translate(80.593 184.046)" fill="#f0c9b9"/>
        <path id="Trazado_873390" data-name="Trazado 873390" d="M188.56,366.564,186.022,371l-.844,1.481-11.555,20.2a9.467,9.467,0,0,1-8.323,4.763c-6.183-.068-16.325-.147-24.026-.037a2.23,2.23,0,0,1-2.575-2.485c.014-4.239,5.836-12.6,9.675-14.4,0,0,6.36-22.364,4.158-27.567-3.765-8.887,1.766-9.341,7.152-6.626,2.742,1.377,3.472,3.424,5.506,3.449,3.188.04,10.233-3.209,10.233-3.209s2.572-3.446,3.41-.048a25.442,25.442,0,0,0,1.421,3.579c.344.764.736,1.6,1.157,2.476,1.93,4.02,4.462,8.9,5.935,11.7.742,1.4,1.213,2.291,1.213,2.291" transform="translate(76.186 189.429)" fill="#f26d76"/>
        <path id="Trazado_873391" data-name="Trazado 873391" d="M171.733,369.14l-.846,1.481c-4.383-3.147-6.493-8.287-6.134-15.053a36.067,36.067,0,0,1,1.21-7.33c.344.762.737,1.6,1.157,2.474a32.406,32.406,0,0,0-.672,4.984c-.313,6.126,1.461,10.633,5.285,13.443" transform="translate(90.476 191.285)" fill="#242645"/>
        <path id="Trazado_873392" data-name="Trazado 873392" d="M188.56,359.681l-14.937,26.107a9.467,9.467,0,0,1-8.323,4.763c-6.183-.068-16.325-.147-24.026-.037a2.23,2.23,0,0,1-2.575-2.485l26.463-.088A7.9,7.9,0,0,0,171.972,384l15.375-26.608c.742,1.4,1.213,2.291,1.213,2.291" transform="translate(76.186 196.312)" fill="#242645"/>
        <path id="Trazado_873393" data-name="Trazado 873393" d="M154.8,355.463a1.461,1.461,0,0,0,1.181-1.239,1.229,1.229,0,0,0-1.4-1.187l-5.734.2a1.525,1.525,0,0,0-1.537,1.287,1.228,1.228,0,0,0,1.4,1.187l5.734-.2a1.7,1.7,0,0,0,.356-.048" transform="translate(80.918 193.92)" fill="#fff"/>
        <path id="Trazado_873394" data-name="Trazado 873394" d="M152.176,367.526a1.459,1.459,0,0,0,1.181-1.24,1.228,1.228,0,0,0-1.4-1.187l-5.732.2a1.525,1.525,0,0,0-1.538,1.287,1.228,1.228,0,0,0,1.4,1.187l5.734-.2a1.8,1.8,0,0,0,.356-.048" transform="translate(79.474 200.546)" fill="#fff"/>
        <path id="Trazado_873395" data-name="Trazado 873395" d="M153.038,364.29a1.459,1.459,0,0,0,1.181-1.239,1.228,1.228,0,0,0-1.4-1.187l-5.732.2a1.525,1.525,0,0,0-1.538,1.287,1.228,1.228,0,0,0,1.4,1.187l5.734-.2a1.685,1.685,0,0,0,.356-.048" transform="translate(79.948 198.768)" fill="#fff"/>
        <path id="Trazado_873396" data-name="Trazado 873396" d="M153.625,361.368a1.46,1.46,0,0,0,1.181-1.239,1.228,1.228,0,0,0-1.4-1.187l-5.732.2a1.525,1.525,0,0,0-1.538,1.287,1.228,1.228,0,0,0,1.4,1.187l5.734-.2a1.794,1.794,0,0,0,.356-.048" transform="translate(80.27 197.163)" fill="#fff"/>
        <path id="Trazado_873397" data-name="Trazado 873397" d="M154.212,358.445a1.459,1.459,0,0,0,1.181-1.239,1.228,1.228,0,0,0-1.4-1.187l-5.734.2a1.524,1.524,0,0,0-1.537,1.287,1.228,1.228,0,0,0,1.4,1.187l5.734-.2a1.689,1.689,0,0,0,.356-.048" transform="translate(80.593 195.558)" fill="#fff"/>
        <path id="Trazado_873398" data-name="Trazado 873398" d="M90.285,343.175l-1.47,26.3-19.837.18-1.74-26.707Z" transform="translate(36.933 188.379)" fill="#f0c9b9"/>
        <path id="Trazado_873399" data-name="Trazado 873399" d="M38.422,391.151l70.784-.06a9.9,9.9,0,0,0,.928-3.932c.437-5.988-1.48-15.542-2.42-21.566-.115-.7-.212-1.36-.288-1.955a20.942,20.942,0,0,1-.214-2.46c0-4.917-4.355-4.07-4.355-4.07-7.156,7.029-15.276-3.5-20.009-.037,0,0-2.039,1.464-7.655,6.524S60.024,372,51.892,375.411c-10.5,4.4-13.476,8.789-14.054,11.81a5.522,5.522,0,0,0,.584,3.931" transform="translate(20.72 195.741)" fill="#f26d76"/>
        <path id="Trazado_873400" data-name="Trazado 873400" d="M38.422,380.229l70.784-.06a9.9,9.9,0,0,0,.928-3.932l-72.3.062a5.522,5.522,0,0,0,.584,3.931" transform="translate(20.72 206.664)" fill="#242645"/>
        <path id="Trazado_873401" data-name="Trazado 873401" d="M80.414,388.514l2.1,0A15.537,15.537,0,0,1,78.7,377.181c.335-6.993,4.527-11.713,7.441-14.171-.115-.7-.212-1.36-.288-1.955-3.14,2.4-8.433,7.667-8.839,16.044a17.18,17.18,0,0,0,3.4,11.415" transform="translate(42.292 198.324)" fill="#242645"/>
        <path id="Trazado_873402" data-name="Trazado 873402" d="M64.669,364.936a1.166,1.166,0,0,0,.277-2.3l-4.423-1.094a1.167,1.167,0,0,0-.561,2.265l4.423,1.094a1.185,1.185,0,0,0,.284.034" transform="translate(32.45 198.574)" fill="#fff"/>
        <path id="Trazado_873403" data-name="Trazado 873403" d="M67.295,362.47a1.166,1.166,0,0,0,.277-2.3l-4.422-1.094a1.167,1.167,0,1,0-.559,2.265l4.422,1.094a1.181,1.181,0,0,0,.282.034" transform="translate(33.893 197.219)" fill="#fff"/>
        <path id="Trazado_873404" data-name="Trazado 873404" d="M61.816,366.6a1.167,1.167,0,0,0,.279-2.3L57.671,363.2a1.166,1.166,0,1,0-.561,2.264l4.423,1.1a1.178,1.178,0,0,0,.282.034" transform="translate(30.883 199.486)" fill="#fff"/>
        <path id="Trazado_873405" data-name="Trazado 873405" d="M58.963,368.194a1.166,1.166,0,0,0,.277-2.3L54.818,364.8a1.166,1.166,0,1,0-.561,2.263l4.423,1.094a1.108,1.108,0,0,0,.282.036" transform="translate(29.316 200.364)" fill="#fff"/>
        <path id="Trazado_873406" data-name="Trazado 873406" d="M55.853,369.672a1.167,1.167,0,0,0,.277-2.3l-4.422-1.094a1.167,1.167,0,0,0-.561,2.265l4.423,1.092a1.106,1.106,0,0,0,.282.036" transform="translate(27.608 201.176)" fill="#fff"/>
        <path id="Trazado_873407" data-name="Trazado 873407" d="M52.479,370.933a1.166,1.166,0,0,0,.277-2.3l-4.422-1.094a1.166,1.166,0,1,0-.561,2.263L52.2,370.9a1.108,1.108,0,0,0,.282.036" transform="translate(25.755 201.868)" fill="#fff"/>
        <path id="Trazado_873408" data-name="Trazado 873408" d="M115.519,201.8q1.794.451,3.608.866c15.442,3.526,31.652,4.953,43,2.245,5.6-1.336,9.181-8.19,11.46-15.845a29.681,29.681,0,0,0,1.59-6.357c1.388-21.275-3.852-30.3-3.852-30.3L87.813,143.1s-2.778,5.113-5.858,11.778a139.648,139.648,0,0,0-6.239,15.561l-.006.014a40.489,40.489,0,0,0-1.856,8.276c-.663,7.582,19.193,17.428,41.665,23.078" transform="translate(40.558 78.601)" fill="#242645"/>
        <path id="Trazado_873409" data-name="Trazado 873409" d="M196.018,429.652c-7.063.7-13.471,1.517-20.5,2.5-2.707.387-5.576.863-8.281,1.249-.655-1.65-1.726-5.054-2.454-6.928-.194-.476-.372-.951-.564-1.442-13.487-34.345-38.926-100.047-43.847-119.361-.119-.476-.253-.982-.372-1.5-1.057-4.281-2.245-9.692-3.494-15.863-5.368-26.525-11.835-66.937-13.248-90.86a108.969,108.969,0,0,1-.119-15.358,10.246,10.246,0,0,1,1.1-3.762c7.627-14.7,50.092-11.389,50.092-11.389s.163,2.319.431,6.289c1.278,19.611,6.512,78.177,8.341,96.524,2.215,22.169,6.66,29.974,6.66,29.974s9.085,20.221,15.151,57.629c3.642,22.541,7.627,47.712,10.2,64.156.073.505.163,1,.237,1.487.239,1.517.462,5.322.669,6.66" transform="translate(56.532 91.519)" fill="#242645"/>
        <path id="Trazado_873410" data-name="Trazado 873410" d="M129.35,253.133a20.886,20.886,0,0,1-15.144.4,1.187,1.187,0,0,1,.908-2.194,18.856,18.856,0,0,0,13.792-.606,1.188,1.188,0,0,1,.988,2.16c-.181.084-.364.164-.544.24" transform="translate(62.33 137.666)" fill="#2f3470"/>
        <path id="Trazado_873411" data-name="Trazado 873411" d="M142.48,334.654c.192.488.38.971.566,1.444l26.824-3.057,1.582-.178,2.163-.245c-.077-.483-.153-.979-.234-1.483l-1.955.223-1.906.218Z" transform="translate(78.263 181.891)" fill="#2f3470"/>
        <path id="Trazado_873412" data-name="Trazado 873412" d="M140.55,202.836a.826.826,0,0,0,.186-1.631,26.485,26.485,0,0,1-9.582-5.108c-6.44-5.294-10.007-12.865-10.6-22.505a.827.827,0,0,0-1.652.1c.778,12.642,6.555,19.884,11.265,23.734a27.533,27.533,0,0,0,10.2,5.387.761.761,0,0,0,.186.022" transform="translate(65.311 94.926)" fill="#2f3470"/>
        <path id="Trazado_873413" data-name="Trazado 873413" d="M111.181,265.773c-6.854,21.083-6.214,31.61-6.214,31.61s5.382,21.6-.313,59.071c-4.282,28.115-6.87,67.307-7.909,85.09-.031.534-.06,1.055-.09,1.546-.282,4.965-.417,7.9-.417,7.9l-27.416,2.987s-.223-3.21-.595-8.741c-.029-.491-.074-1.012-.1-1.532-1.978-29.409-7.4-114.009-6.944-147.79.045-3.969.178-7.24.417-9.633.178-1.769.446-4.163.818-7.062,3.255-26.169,13.663-93.522,20.963-116.522,5.784-18.2,46.477.4,46.477.4s-11.8,81.6-18.674,102.679" transform="translate(33.59 84.979)" fill="#242645"/>
        <path id="Trazado_873414" data-name="Trazado 873414" d="M76.9,242.821a20.9,20.9,0,0,1-15.1-1.255,1.188,1.188,0,0,1,1.143-2.082,18.86,18.86,0,0,0,13.775.9,1.188,1.188,0,1,1,.747,2.256c-.189.062-.38.122-.567.178" transform="translate(33.61 131.466)" fill="#2f3470"/>
        <path id="Trazado_873415" data-name="Trazado 873415" d="M94.279,339.846c-.033.539-.062,1.053-.09,1.551l-28.436,2.14c-.033-.491-.068-1.005-.105-1.535Z" transform="translate(36.06 186.675)" fill="#2f3470"/>
        <path id="Trazado_873416" data-name="Trazado 873416" d="M132.811,170.18a.844.844,0,0,1,.923.758c.084.86,8.538,86.282,12.112,119.692.646,1.929,11.381,34.16,14.522,51.437,2.82,15.51,11.654,58,15.845,78.041-.536.172-1.083.315-1.628.459-4.185-20-13.051-62.643-15.876-78.2-3.2-17.6-14.381-50.955-14.494-51.289a.859.859,0,0,1-.039-.177c-3.571-33.355-12.038-118.939-12.122-119.8a.84.84,0,0,1,.756-.923" transform="translate(72.534 93.477)" fill="#2f3470"/>
        <path id="Trazado_873417" data-name="Trazado 873417" d="M107.277,184.557a.846.846,0,0,0,.394-1.594c-.129-.068-9.071-4.911-10.859-15.457a.845.845,0,0,0-1.667.284,24.306,24.306,0,0,0,11.741,16.672.847.847,0,0,0,.392.1" transform="translate(52.256 91.623)" fill="#2f3470"/>
        <path id="Trazado_873418" data-name="Trazado 873418" d="M81,431.5a.843.843,0,0,0,.772-.789c.056-.872,5.6-87.551,7.463-107.316,1.794-19.036-.945-46.4-1.2-48.894,6.349-19.473,23.851-96.928,24.028-97.711a.845.845,0,1,0-1.648-.372c-.178.784-17.767,78.622-24.042,97.726a.861.861,0,0,0-.037.355c.031.288,3.075,29.046,1.219,48.738-1.867,19.791-7.41,106.494-7.466,107.367a.844.844,0,0,0,.916.9" transform="translate(43.987 96.546)" fill="#2f3470"/>
        <path id="Trazado_873419" data-name="Trazado 873419" d="M69.128,80.134c.029.274.056.652.079.987l.067,1.043.141,2.1.271,4.216q.265,4.213.581,8.375c.431,5.534.936,11.006,1.712,16.137.191,1.281.409,2.536.641,3.752s.479,2.394.761,3.5.572,2.15.891,3.06A14.57,14.57,0,0,0,75.2,125.5l.1.183.088.133.04.068.036.039a.84.84,0,0,1,.06.081c.062.05.076.016-.042-.152l-.155-.186c-.07-.081-.143-.16-.215-.237-.141-.144-.313-.322-.494-.491a10.49,10.49,0,0,0-1.25-.982,10.624,10.624,0,0,0-3.219-1.439,10.108,10.108,0,0,0-2.877-.318,8.421,8.421,0,0,0-1.715.22,10.134,10.134,0,0,0-1.047.318c-.036,0,.115-.1.333-.271.449-.35,1.151-.959,1.895-1.661,1.507-1.43,3.17-3.28,4.828-5.22s3.319-4.044,4.983-6.18c3.317-4.29,6.575-8.82,9.824-13.4s6.453-9.265,9.671-13.954L100.862,75l4.8-6.97.084-.121a12.844,12.844,0,0,1,22.057,13.045c-.369.736-.689,1.38-1.043,2.056l-1.038,2c-.691,1.326-1.405,2.634-2.121,3.941q-2.157,3.916-4.42,7.77-4.525,7.713-9.513,15.231-2.494,3.767-5.147,7.483c-1.758,2.488-3.6,4.942-5.5,7.4s-3.917,4.893-6.064,7.342c-1.074,1.227-2.2,2.443-3.395,3.669s-2.459,2.46-3.856,3.714a45.865,45.865,0,0,1-4.876,3.844,32.29,32.29,0,0,1-3.384,2.014,23.43,23.43,0,0,1-5.093,1.932,19.864,19.864,0,0,1-3.869.552,17.832,17.832,0,0,1-5.041-.527,16.869,16.869,0,0,1-5.21-2.307,17.423,17.423,0,0,1-2.11-1.652c-.318-.29-.626-.589-.886-.871l-.4-.437-.2-.222-.093-.108-.046-.059A27.428,27.428,0,0,1,51.94,140l-.474-.872-.231-.435-.2-.42-.4-.843-.352-.812a39.672,39.672,0,0,1-1.969-6.038,55.042,55.042,0,0,1-1.061-5.447c-.253-1.754-.435-3.455-.572-5.127s-.2-3.312-.248-4.933a134.979,134.979,0,0,1,.928-18.765q.523-4.574,1.312-9.071c.268-1.5.547-3,.861-4.5.152-.748.327-1.5.5-2.248l.262-1.131.291-1.187a9.4,9.4,0,0,1,18.469,1.2Z" transform="translate(25.483 34.248)" fill="#f0c9b9"/>
        <path id="Trazado_873420" data-name="Trazado 873420" d="M67.405,111.3a.6.6,0,0,1-.491-.552c-.31-4.787-4.022-13.685-4.061-13.772a.6.6,0,1,1,1.109-.466c.155.372,3.827,9.173,4.151,14.159a.6.6,0,0,1-.561.638.469.469,0,0,1-.147-.008" transform="translate(34.499 52.807)" fill="#dea187"/>
        <path id="Trazado_873421" data-name="Trazado 873421" d="M68.9,103.231a.607.607,0,0,1-.369-.223,14.327,14.327,0,0,0-4.467-3.329.6.6,0,1,1,.553-1.064,15.1,15.1,0,0,1,4.866,3.663.6.6,0,0,1-.112.841.592.592,0,0,1-.473.113" transform="translate(35.01 54.131)" fill="#dea187"/>
        <path id="Trazado_873422" data-name="Trazado 873422" d="M78.053,190.434c22.381,5.277,54.185,20.008,92.866,13.428-3.306-22.442-1.1-60.585-1.078-61.146A129.131,129.131,0,0,1,171,129.79c.226-1.724.486-3.508.776-5.331.285-1.794.6-3.636.947-5.5q.483-2.647,1.046-5.362c.234-1.154.483-2.318.739-3.481.15-.685.3-1.366.46-2.053.028-.119.057-.242.084-.361.121-.525.242-1.046.369-1.568.276-1.156.559-2.315.851-3.464.689-2.725,1.425-5.43,2.206-8.075,4.838-16.41,3.819-34.136-12.937-37.583-1.219-.254-2.418-.491-3.585-.71-7.908-1.5-14.447-2.325-16.268-2.544l-.5-.06-33.5,6.845-3.188.649A116.829,116.829,0,0,0,96.968,64.4a36.437,36.437,0,0,0-6.617,2.941C82.758,71.848,83.4,77.7,82.66,89.088c-.014.2-.025.39-.039.589,0,.065-.009.133-.014.2-.138,1.937-.349,3.859-.62,5.771-.3,2.138-.663,4.254-1.063,6.329-.84,4.35-1.825,8.526-2.659,12.382-.407,1.868-.775,3.664-1.075,5.367a51.59,51.59,0,0,0-.7,5.475,18.818,18.818,0,0,0,.29,5.2,9.317,9.317,0,0,0,.493,1.593,25.068,25.068,0,0,0,1.8,3.525,36.5,36.5,0,0,0,3.535,4.817,49.954,49.954,0,0,0,5.5,5.469c.49.415.776.635.776.635,0,.033,0,.07,0,.107.008.282,0,.578.006.891-.008,1.195-.043,2.614-.115,4.226-.029.7.883,18.237-10.727,38.771" transform="translate(41.986 29.493)" fill="#40b7d6"/>
        <path id="Trazado_873423" data-name="Trazado 873423" d="M76.925,101.654l88.739-10.586a23.5,23.5,0,0,1-6.343-4.482L78,96.288c-.407,1.868-.775,3.664-1.075,5.367" transform="translate(42.254 47.561)" fill="#e9dbd2"/>
        <path id="Trazado_873424" data-name="Trazado 873424" d="M76.781,109.163l95.94-11.446q.483-2.647,1.046-5.362l-97.275,11.6a18.826,18.826,0,0,0,.29,5.2" transform="translate(41.986 50.73)" fill="#e9dbd2"/>
        <path id="Trazado_873425" data-name="Trazado 873425" d="M78.139,110.428a36.607,36.607,0,0,0,3.535,4.817L170.063,104.7c.228-1.723.488-3.506.778-5.331Z" transform="translate(42.921 54.582)" fill="#e9dbd2"/>
        <path id="Trazado_873426" data-name="Trazado 873426" d="M88.382,62.5c.064,7.564-2.79,19.8-8.36,28.309.27-1.912.48-3.836.617-5.773,0-.064.012-.132.017-.2.011-.2.023-.4.036-.59.744-11.387.1-17.239,7.691-21.751" transform="translate(43.956 34.33)" fill="#f0c9b9"/>
        <path id="Trazado_873427" data-name="Trazado 873427" d="M122.63,82.236c2.576,14.791,17.152,29.813,26.835,26.952.177-.806.358-1.607.542-2.412.119-.524.245-1.046.372-1.571.92-3.889,1.946-7.776,3.055-11.538,4.837-16.41,3.819-34.134-12.937-37.584-1.218-.251-2.417-.488-3.584-.708-8.769,2.922-17.25,9.83-14.284,26.862" transform="translate(67.028 30.417)" fill="#f0c9b9"/>
        <path id="Trazado_873428" data-name="Trazado 873428" d="M134.371,114.214a.786.786,0,0,1-.632.473.769.769,0,0,1-.4-.054,45.375,45.375,0,0,0-28.839-.824,49.163,49.163,0,0,1-19.749,2.58c0-.313,0-.61,0-.891,0-.04,0-.074,0-.11,0,0-.287-.218-.776-.632,5.238.685,12.074.124,20.046-2.443a46.113,46.113,0,0,1,29.937.874.782.782,0,0,1,.415,1.029" transform="translate(46.126 60.543)" fill="#e9dbd2"/>
        <path id="Trazado_873429" data-name="Trazado 873429" d="M101.779,92.777c-9.9,1.181-13.335-9.232-13.369-9.338a.786.786,0,0,1,1.5-.477c.127.394,3.1,9.279,11.685,8.253,9.012-1.075,26.976-17.179,27.156-17.341A.785.785,0,1,1,129.8,75.04c-.751.679-18.519,16.6-28.022,17.736" transform="translate(48.543 40.467)" fill="#e9dbd2"/>
        <path id="Trazado_873430" data-name="Trazado 873430" d="M113.324,84.867s-4.519,6.89-11.268-1.582c0,0-14.227,3.147-12.968-12.758,0,0-9.217-4.758-2.307-15,0,0-10.137-3.6-4.546-17.143,0,0-6.254-7.734-2.53-16.791,4.419-10.752,14.845-7,14.845-7S91.6,4.8,102.372,1.684a12.438,12.438,0,0,1,14.811,5.948s3.986-8.665,12.7-7.53c11.607,1.512,10.483,12.119,10.483,12.119S149.1,6.5,155.409,13.4s.525,15.028.525,15.028,9.951-.734,10.112,8.62-5.494,11.311-5.494,11.311,3.532,8.485-7.833,14.511c0,0,7.117,18.506-13.742,14.585-13.779-2.592-25.653,7.41-25.653,7.41" transform="translate(43.132 0)" fill="#242645"/>
        <path id="Trazado_873431" data-name="Trazado 873431" d="M99.786,72.665c9.75,15.422,27-6,27.258-10.521a52.441,52.441,0,0,1-3.223-21.266L98.362,51.862q.167,1.136.338,2.281a102.279,102.279,0,0,1,1.2,10.95c.076,1.822.011,5.629-.113,7.571" transform="translate(54.03 22.454)" fill="#f0c9b9"/>
        <path id="Trazado_873432" data-name="Trazado 873432" d="M99.78,63.1c13.483-3.917,21.475-18.582,21.475-18.582L98.579,52.146a101.875,101.875,0,0,1,1.2,10.95" transform="translate(54.149 24.451)" fill="#b3816d"/>
        <path id="Trazado_873433" data-name="Trazado 873433" d="M97.655,37.438s-2.4-6.29-7.533-4.527S85.8,52.04,95.7,50.921Z" transform="translate(47.797 17.906)" fill="#dea187"/>
        <path id="Trazado_873434" data-name="Trazado 873434" d="M94.606,58.624a8.685,8.685,0,1,1,9.265-8.061,8.7,8.7,0,0,1-9.265,8.061M95.722,42.59a7.388,7.388,0,1,0,6.857,7.883,7.4,7.4,0,0,0-6.857-7.883" transform="translate(47.527 22.672)" fill="#fff"/>
        <path id="Trazado_873435" data-name="Trazado 873435" d="M129.694,57.123c-2.366,7.073-20.006,16.02-27.576,12.934-4.6-1.875-8.767-5.875-11.409-15.03-.015-.046-.028-.1-.043-.146-.153-.541-.3-1.072-.434-1.6-.248-.95-.463-1.884-.646-2.778-.042-.209-.085-.417-.122-.623q-.156-.832-.268-1.614-.139-.962-.206-1.82c-.7-9.271-1.676-19.678,6.54-25.859s21.351-8.341,29.316-.363c0,0,5.955,7,6.31,20.427s.251,11.369-1.461,16.475" transform="translate(48.635 8.268)" fill="#f0c9b9"/>
        <path id="Trazado_873436" data-name="Trazado 873436" d="M105.876,39.037s.689,6.1-4.336,7.263-6.411-3.726-6.411-3.726Z" transform="translate(52.254 21.443)" fill="#fff"/>
        <path id="Trazado_873437" data-name="Trazado 873437" d="M100.834,45.749a2.767,2.767,0,0,0,1.388-1.2.464.464,0,0,0-.824-.426,1.881,1.881,0,0,1-1.913.868.463.463,0,1,0-.105.92,3.021,3.021,0,0,0,1.455-.166" transform="translate(54.363 24.101)" fill="#dea187"/>
        <path id="Trazado_873438" data-name="Trazado 873438" d="M106.653,32.254a.731.731,0,0,0,.231-.2.715.715,0,0,0-.136-1,4.346,4.346,0,0,0-4.567-.273,4.916,4.916,0,0,0-2.3,3.876.714.714,0,0,0,1.427.07,3.523,3.523,0,0,1,1.546-2.686,2.91,2.91,0,0,1,3.024.15.715.715,0,0,0,.772.06" transform="translate(54.865 16.618)" fill="#242645"/>
        <path id="Trazado_873439" data-name="Trazado 873439" d="M98.22,35.855a.713.713,0,0,0,.341-.847,3.4,3.4,0,0,0-2.682-2.276,4.075,4.075,0,0,0-3.528,1.47.714.714,0,0,0,1.129.875,2.617,2.617,0,0,1,2.229-.926,1.955,1.955,0,0,1,1.49,1.3.716.716,0,0,0,.9.46.746.746,0,0,0,.119-.051" transform="translate(50.647 17.964)" fill="#242645"/>
        <path id="Trazado_873440" data-name="Trazado 873440" d="M98.614,41.962a.6.6,0,0,1-.328-.036l-2.845-1.182a.591.591,0,0,1-.139-1.009,8.509,8.509,0,0,0,3.133-6.473.591.591,0,1,1,1.177.093,9.826,9.826,0,0,1-2.84,6.662l1.966.816a.59.59,0,0,1-.124,1.128" transform="translate(52.225 17.972)" fill="#dea187"/>
        <path id="Trazado_873441" data-name="Trazado 873441" d="M100.227,28.54A1.435,1.435,0,0,1,98.9,26.055a4.165,4.165,0,0,1,2.8-.838,10.408,10.408,0,0,1,8.1,4.5s-5.235-1.775-7.987-1.5a7.937,7.937,0,0,0-1.577.318" transform="translate(54.025 13.85)" fill="#242645"/>
        <path id="Trazado_873442" data-name="Trazado 873442" d="M96.832,29.515a1.435,1.435,0,0,0,.4-2.789,4.161,4.161,0,0,0-2.916.166c-5.026,2.008-4.708,5.794-4.708,5.794a19.049,19.049,0,0,1,5.632-2.931,7.9,7.9,0,0,1,1.591-.24" transform="translate(49.22 14.576)" fill="#242645"/>
        <path id="Trazado_873443" data-name="Trazado 873443" d="M107.333,18.339s4.919,14.331,9.243,17.075,7.635-4.46,7.635-4.46-9.358-21.885-16.878-12.614" transform="translate(58.957 8.816)" fill="#242645"/>
        <path id="Trazado_873444" data-name="Trazado 873444" d="M95.688,20.219s8.614,11.668,18.937,8.518,3.03-11.581,3.03-11.581S98.023,9.87,95.688,20.219" transform="translate(52.561 8.055)" fill="#242645"/>
        <path id="Trazado_873445" data-name="Trazado 873445" d="M104.061,19.1S99.4,34.762,89.126,32.44s3.57-18.088,10.4-17.7,4.536,4.354,4.536,4.354" transform="translate(46.939 8.095)" fill="#242645"/>
        <path id="Trazado_873446" data-name="Trazado 873446" d="M90.339,42.57c-.155-.541-.3-1.072-.434-1.6-.248-.951-.465-1.884-.646-2.778-.043-.211-.085-.418-.122-.624.153-.017.308-.033.465-.045,3.481-.291,6.4.61,6.519,2.011.116,1.36-2.448,2.7-5.782,3.038" transform="translate(48.962 20.58)" fill="#dea187"/>
        <path id="Trazado_873447" data-name="Trazado 873447" d="M115.453,36.838c.118,1.4-2.611,2.776-6.093,3.069s-6.4-.607-6.521-2.011,2.611-2.776,6.093-3.069,6.4.607,6.521,2.011" transform="translate(56.486 19.1)" fill="#dea187"/>
        <path id="Trazado_873448" data-name="Trazado 873448" d="M113.811,32.028s2.758-5.585,8.38-3.542,4.389,21.17-6.495,19.744Z" transform="translate(62.516 15.4)" fill="#f0c9b9"/>
        <path id="Trazado_873449" data-name="Trazado 873449" d="M111.952,25.779s-2.121,16.883,1.639,15.183,4.527-11.835,4.527-11.835Z" transform="translate(61.167 14.16)" fill="#242645"/>
        <path id="Trazado_873450" data-name="Trazado 873450" d="M123.884,38.626c-.29.373-.451.756-.744,1.126a7.393,7.393,0,1,1-4.688.547c1.571-.555,1.775-1.224,1.791-1.9a8.683,8.683,0,1,0,10.024,9.178,8.815,8.815,0,0,0-6.383-8.955" transform="translate(62.026 21.094)" fill="#fff"/>
        <path id="Trazado_873451" data-name="Trazado 873451" d="M115.647,38.77a.514.514,0,0,0,.411.6.555.555,0,0,0,.112.011.518.518,0,0,0,.49-.42,10.553,10.553,0,0,1,1.552-3.571c1.117.875,2.013,1.693,2.025,1.7a.5.5,0,0,0,.364.135.53.53,0,0,0,.364-.166.518.518,0,0,0-.034-.728c-.04-.037-.936-.855-2.081-1.754a6.272,6.272,0,0,1,3.1-1.935.514.514,0,0,0-.262-.995c-4.888,1.281-6,6.88-6.044,7.117" transform="translate(63.519 17.377)" fill="#242645"/>
        <rect id="Rectángulo_401147" data-name="Rectángulo 401147" width="207.785" height="167.329" transform="translate(0 251.805) rotate(-62.294)" fill="#f26d76"/>
        <rect id="Rectángulo_401148" data-name="Rectángulo 401148" width="8.738" height="42.614" transform="matrix(0.465, -0.885, 0.885, 0.465, 110.963, 105.829)" fill="#fff"/>
        <rect id="Rectángulo_401149" data-name="Rectángulo 401149" width="8.739" height="18.687" transform="translate(203.623 154.49) rotate(-62.294)" fill="#fff"/>
        <rect id="Rectángulo_401150" data-name="Rectángulo 401150" width="2.878" height="18.689" transform="translate(196.9 167.29) rotate(-62.294)" fill="#fff"/>
        <rect id="Rectángulo_401151" data-name="Rectángulo 401151" width="132.258" height="9.681" transform="matrix(0.465, -0.885, 0.885, 0.465, 38.387, 248.1)" fill="#fff"/>
        <rect id="Rectángulo_401152" data-name="Rectángulo 401152" width="132.258" height="9.681" transform="matrix(0.465, -0.885, 0.885, 0.465, 50.838, 254.639)" fill="#fff"/>
        <rect id="Rectángulo_401153" data-name="Rectángulo 401153" width="132.258" height="9.681" transform="matrix(0.465, -0.885, 0.885, 0.465, 63.289, 261.178)" fill="#fff"/>
        <rect id="Rectángulo_401154" data-name="Rectángulo 401154" width="132.258" height="9.681" transform="matrix(0.465, -0.885, 0.885, 0.465, 75.741, 267.717)" fill="#fff"/>
        <rect id="Rectángulo_401155" data-name="Rectángulo 401155" width="132.258" height="9.681" transform="matrix(0.465, -0.885, 0.885, 0.465, 88.192, 274.256)" fill="#fff"/>
        <rect id="Rectángulo_401156" data-name="Rectángulo 401156" width="132.258" height="9.681" transform="translate(100.643 280.795) rotate(-62.295)" fill="#fff"/>
        <rect id="Rectángulo_401157" data-name="Rectángulo 401157" width="132.258" height="9.681" transform="translate(113.095 287.333) rotate(-62.295)" fill="#fff"/>
        <rect id="Rectángulo_401158" data-name="Rectángulo 401158" width="132.258" height="9.681" transform="translate(125.546 293.872) rotate(-62.295)" fill="#fff"/>
        <rect id="Rectángulo_401159" data-name="Rectángulo 401159" width="132.258" height="9.681" transform="translate(137.997 300.411) rotate(-62.295)" fill="#fff"/>
        <rect id="Rectángulo_401160" data-name="Rectángulo 401160" width="122.61" height="1.214" transform="translate(41.395 248.782) rotate(-62.294)" fill="#242645"/>
        <rect id="Rectángulo_401161" data-name="Rectángulo 401161" width="122.61" height="1.216" transform="matrix(0.465, -0.885, 0.885, 0.465, 53.947, 255.374)" fill="#242645"/>
        <rect id="Rectángulo_401162" data-name="Rectángulo 401162" width="122.61" height="1.214" transform="matrix(0.465, -0.885, 0.885, 0.465, 66.499, 261.966)" fill="#242645"/>
        <rect id="Rectángulo_401163" data-name="Rectángulo 401163" width="122.61" height="1.214" transform="matrix(0.465, -0.885, 0.885, 0.465, 79.052, 268.558)" fill="#242645"/>
        <rect id="Rectángulo_401164" data-name="Rectángulo 401164" width="122.61" height="1.214" transform="translate(91.604 275.149) rotate(-62.294)" fill="#242645"/>
        <rect id="Rectángulo_401165" data-name="Rectángulo 401165" width="122.611" height="1.215" transform="matrix(0.465, -0.885, 0.885, 0.465, 104.156, 281.741)" fill="#242645"/>
        <rect id="Rectángulo_401166" data-name="Rectángulo 401166" width="122.61" height="1.214" transform="translate(116.708 288.333) rotate(-62.294)" fill="#242645"/>
        <rect id="Rectángulo_401167" data-name="Rectángulo 401167" width="122.61" height="1.215" transform="matrix(0.465, -0.885, 0.885, 0.465, 129.26, 294.924)" fill="#242645"/>
        <rect id="Rectángulo_401168" data-name="Rectángulo 401168" width="122.61" height="1.216" transform="matrix(0.465, -0.885, 0.885, 0.465, 141.812, 301.516)" fill="#242645"/>
        <rect id="Rectángulo_401169" data-name="Rectángulo 401169" width="61.123" height="4.455" transform="translate(39.962 248.029) rotate(-62.295)" fill="#40b7d6"/>
        <rect id="Rectángulo_401170" data-name="Rectángulo 401170" width="61.123" height="4.456" transform="translate(52.513 254.621) rotate(-62.295)" fill="#40b7d6"/>
        <rect id="Rectángulo_401171" data-name="Rectángulo 401171" width="41.295" height="4.455" transform="translate(65.065 261.213) rotate(-62.295)" fill="#40b7d6"/>
        <rect id="Rectángulo_401172" data-name="Rectángulo 401172" width="82.589" height="4.456" transform="translate(77.618 267.804) rotate(-62.295)" fill="#40b7d6"/>
        <rect id="Rectángulo_401173" data-name="Rectángulo 401173" width="17.256" height="4.455" transform="translate(107.994 209.961) rotate(-62.295)" fill="#40b7d6"/>
        <rect id="Rectángulo_401174" data-name="Rectángulo 401174" width="95.322" height="4.455" transform="translate(90.17 274.396) rotate(-62.295)" fill="#40b7d6"/>
        <rect id="Rectángulo_401175" data-name="Rectángulo 401175" width="61.123" height="4.456" transform="translate(102.722 280.988) rotate(-62.295)" fill="#40b7d6"/>
        <rect id="Rectángulo_401176" data-name="Rectángulo 401176" width="86.227" height="4.455" transform="translate(115.274 287.58) rotate(-62.295)" fill="#40b7d6"/>
        <rect id="Rectángulo_401177" data-name="Rectángulo 401177" width="5.864" height="4.455" transform="translate(152.638 216.431) rotate(-62.295)" fill="#40b7d6"/>
        <rect id="Rectángulo_401178" data-name="Rectángulo 401178" width="76.768" height="4.456" transform="translate(127.826 294.171) rotate(-62.295)" fill="#40b7d6"/>
        <rect id="Rectángulo_401179" data-name="Rectángulo 401179" width="61.123" height="4.455" transform="translate(140.378 300.763) rotate(-62.295)" fill="#40b7d6"/>
        <rect id="Rectángulo_401180" data-name="Rectángulo 401180" width="4.737" height="9.107" transform="translate(26.764 240.529) rotate(-62.293)" fill="#fff"/>
        <rect id="Rectángulo_401181" data-name="Rectángulo 401181" width="4.737" height="9.107" transform="translate(35.859 223.211) rotate(-62.293)" fill="#fff"/>
        <rect id="Rectángulo_401182" data-name="Rectángulo 401182" width="4.737" height="9.107" transform="translate(44.954 205.892) rotate(-62.293)" fill="#fff"/>
        <rect id="Rectángulo_401183" data-name="Rectángulo 401183" width="4.737" height="9.107" transform="translate(54.049 188.573) rotate(-62.293)" fill="#fff"/>
        <rect id="Rectángulo_401184" data-name="Rectángulo 401184" width="4.737" height="9.107" transform="translate(63.144 171.255) rotate(-62.293)" fill="#fff"/>
        <rect id="Rectángulo_401185" data-name="Rectángulo 401185" width="4.737" height="9.107" transform="translate(72.238 153.936) rotate(-62.293)" fill="#fff"/>
        <rect id="Rectángulo_401186" data-name="Rectángulo 401186" width="4.737" height="9.107" transform="translate(81.333 136.617) rotate(-62.293)" fill="#fff"/>
        <rect id="Rectángulo_401187" data-name="Rectángulo 401187" width="1.862" height="9.681" transform="translate(101.92 127.115) rotate(-62.295)" fill="#d1d1ff"/>
        <rect id="Rectángulo_401188" data-name="Rectángulo 401188" width="1.862" height="9.681" transform="translate(114.371 133.654) rotate(-62.295)" fill="#d1d1ff"/>
        <rect id="Rectángulo_401189" data-name="Rectángulo 401189" width="1.862" height="9.681" transform="translate(126.823 140.193) rotate(-62.295)" fill="#d1d1ff"/>
        <rect id="Rectángulo_401190" data-name="Rectángulo 401190" width="1.862" height="9.681" transform="translate(139.274 146.732) rotate(-62.295)" fill="#d1d1ff"/>
        <rect id="Rectángulo_401191" data-name="Rectángulo 401191" width="1.862" height="9.681" transform="translate(151.725 153.271) rotate(-62.295)" fill="#d1d1ff"/>
        <rect id="Rectángulo_401192" data-name="Rectángulo 401192" width="1.862" height="9.681" transform="translate(164.177 159.809) rotate(-62.295)" fill="#d1d1ff"/>
        <rect id="Rectángulo_401193" data-name="Rectángulo 401193" width="1.862" height="9.681" transform="translate(176.628 166.348) rotate(-62.295)" fill="#d1d1ff"/>
        <rect id="Rectángulo_401194" data-name="Rectángulo 401194" width="1.862" height="9.681" transform="translate(189.079 172.887) rotate(-62.295)" fill="#d1d1ff"/>
        <rect id="Rectángulo_401195" data-name="Rectángulo 401195" width="1.862" height="9.681" transform="matrix(0.465, -0.885, 0.885, 0.465, 201.531, 179.426)" fill="#d1d1ff"/>
        <path id="Trazado_873452" data-name="Trazado 873452" d="M127.409,99.744" transform="translate(69.985 54.789)" fill="#dea187"/>
        <path id="Trazado_873453" data-name="Trazado 873453" d="M141.326,106.23c.245-.042.593-.082.9-.122l.957-.113,1.935-.235L149,105.3c2.584-.3,5.161-.627,7.712-.961,5.1-.672,10.129-1.428,14.878-2.381,1.185-.245,2.355-.482,3.489-.755s2.24-.561,3.3-.854,2.073-.62,3-.959a24.027,24.027,0,0,0,2.494-1.019,10.009,10.009,0,0,0,1.543-.9c.116-.1.209-.186.156-.181a.294.294,0,0,0-.112.062c-.012.017-.084.059-.118.093a.729.729,0,0,0-.06.059l-.172.184a8.308,8.308,0,0,0-.923,1.284,9.027,9.027,0,0,0-.84,1.935,9.463,9.463,0,0,0-.4,2.226,9.013,9.013,0,0,0,.084,1.927,7.835,7.835,0,0,0,.305,1.315,7.1,7.1,0,0,0,.28.744c.156.344.222.432.178.409-.082-.056-.493-.5-1.058-.99s-1.3-1.078-2.116-1.665c-1.628-1.181-3.539-2.437-5.564-3.641s-4.157-2.426-6.351-3.6c-2.183-1.2-4.442-2.341-6.712-3.506-4.561-2.3-9.229-4.563-13.942-6.8l-7.086-3.345-7-3.319-.208-.1a12.849,12.849,0,0,1,9.124-23.938l1.075.316,1.018.311,2.016.629q2,.641,3.982,1.323,3.96,1.366,7.872,2.872c5.216,2.016,10.4,4.189,15.546,6.626,2.583,1.2,5.142,2.5,7.72,3.848,2.569,1.371,5.144,2.812,7.733,4.4a90.129,90.129,0,0,1,7.872,5.4c1.337,1.04,2.7,2.181,4.113,3.506a35.574,35.574,0,0,1,4.42,4.961,25.628,25.628,0,0,1,2.319,3.839,21.872,21.872,0,0,1,1.075,2.6,20.314,20.314,0,0,1,.809,3.274,18.927,18.927,0,0,1,.2,3.946A18.061,18.061,0,0,1,208.3,112.5a18.962,18.962,0,0,1-2.082,2.939l-.273.313-.132.147-.1.107-.411.423c-.271.274-.561.576-.829.813l-.824.733c-.282.249-.541.442-.815.662a28.929,28.929,0,0,1-3.154,2.144,35.591,35.591,0,0,1-5.717,2.666,55.566,55.566,0,0,1-10.022,2.6,89.335,89.335,0,0,1-9.186,1.057,133.248,133.248,0,0,1-17.426-.082c-2.846-.186-5.67-.462-8.485-.807q-2.112-.265-4.219-.592c-.7-.108-1.405-.234-2.113-.356l-1.066-.189-1.123-.215a9.4,9.4,0,0,1,.163-18.485Z" transform="translate(69.44 30.819)" fill="#f0c9b9"/>
        <path id="Trazado_873454" data-name="Trazado 873454" d="M143.433,89.439s-11.028.02-18.15.7c-4.9.468-8.97-.077-10.122,1.971s8.851,3.472,9.748,3.594,18.523-6.267,18.523-6.267" transform="translate(63.207 49.128)" fill="#f0c9b9"/>
        <path id="Trazado_873455" data-name="Trazado 873455" d="M156.038,92.776c2.459,4.741.341,10.523-4.315,13.141a24.454,24.454,0,0,0-6.614,5.032c-3.814,4.586-5.667,11.861-9.607,14.275s-4.671,1.241-3.5-2.578,4.154-10.631,4.154-10.631-6.543,7.743-7.709,11.562-4.5,5.165-5.449.979,4.485-14.218,6.741-16.59c0,0-5.268,3.734-7.02,8.854s-2.519,8.086-4.168,9.531-4.113-1.721-1.484-8.806,4.778-10.926,7.525-13.381a40,40,0,0,0-6.953,3.65c-4.144,2.629-5.7,8.709-8.616,9.035-2.984.335-.886-6.588,1.978-9.888s4.668-5.943,9.658-8.453,9.847-4.739,13.2-5.525,14.889-5.145,19.43-3.153a6.125,6.125,0,0,1,2.756,2.944" transform="translate(59.087 49.06)" fill="#f0c9b9"/>
        <path id="Trazado_873456" data-name="Trazado 873456" d="M134.136,89.518s9.3,4.863,8.106,18.856c0,0,2.59,1.977,4.631.473,0,0,1.193-14.92-7.929-20.475,0,0-3.346-.851-4.807,1.146" transform="translate(73.68 48.443)" fill="#242645"/>
        <path id="Trazado_873457" data-name="Trazado 873457" d="M150.6,81.394a.6.6,0,0,1-.77.265c-.144-.064-14.421-6.352-20.553-9.649a.6.6,0,0,1,.569-1.06c6.092,3.277,20.325,9.545,20.468,9.61a.6.6,0,0,1,.308.79l-.022.043" transform="translate(70.838 38.933)" fill="#dea187"/>
        <path id="Trazado_873458" data-name="Trazado 873458" d="M134.145,73.021a.6.6,0,0,1-.383.355l-4.555,1.4a.6.6,0,0,1-.353-1.148l4.555-1.4a.6.6,0,0,1,.751.4.608.608,0,0,1-.015.4" transform="translate(70.546 39.659)" fill="#dea187"/>
        <path id="Trazado_873459" data-name="Trazado 873459" d="M169.042,83.891a.6.6,0,0,1-.6.344c-3.906-.369-9.218,2.471-9.271,2.5a.6.6,0,1,1-.572-1.058c.231-.124,5.691-3.041,9.954-2.64a.6.6,0,0,1,.542.655.571.571,0,0,1-.054.2" transform="translate(86.945 45.591)" fill="#dea187"/>
        <path id="Trazado_873460" data-name="Trazado 873460" d="M165.3,81.664a.588.588,0,0,1-.363.318c-.1.036-2.369.813-3.377,4.172a.6.6,0,1,1-1.151-.345c1.205-4,4.048-4.936,4.169-4.972a.6.6,0,0,1,.722.827" transform="translate(88.095 44.388)" fill="#dea187"/>
        <path id="Trazado_873461" data-name="Trazado 873461" d="M49.1,76.261s-4.3-4.4-1.724-7.709,12.49-3.188,15.965-2.908-3.221,5.035-6.849,5.395-4.626,2.056-4.626,2.056Z" transform="translate(25.571 35.987)" fill="#f0c9b9"/>
        <path id="Trazado_873462" data-name="Trazado 873462" d="M53.787,68.686s-4.3-4.4-1.724-7.709,12.49-3.188,15.965-2.91-3.219,5.037-6.849,5.4-4.626,2.054-4.626,2.054Z" transform="translate(28.145 31.825)" fill="#f0c9b9"/>
        <path id="Trazado_873463" data-name="Trazado 873463" d="M55.5,64.249s-3.8-3.886-1.523-6.811,11.033-2.815,14.1-2.569-2.844,4.448-6.05,4.766-4.087,1.816-4.087,1.816Z" transform="translate(29.252 30.077)" fill="#f0c9b9"/>
        <path id="Trazado_873464" data-name="Trazado 873464" d="M51.578,72.627s-4.3-4.4-1.724-7.709,12.49-3.187,15.965-2.908S62.6,67.045,58.97,67.4s-4.628,2.054-4.628,2.054Z" transform="translate(26.932 33.991)" fill="#f0c9b9"/>
      </g>
    </g>
  </g>
</svg>
