<svg xmlns="http://www.w3.org/2000/svg" xmlns:xlink="http://www.w3.org/1999/xlink" width="122" height="123.001" viewBox="0 0 122 123.001">
  <defs>
    <filter id="Elipse_9685" x="0" y="1.001" width="122" height="122" filterUnits="userSpaceOnUse">
      <feOffset dy="3" input="SourceAlpha"/>
      <feGaussianBlur stdDeviation="3" result="blur"/>
      <feFlood flood-opacity="0.161"/>
      <feComposite operator="in" in2="blur"/>
      <feComposite in="SourceGraphic"/>
    </filter>
  </defs>
  <g id="Grupo_1099029" data-name="Grupo 1099029" transform="translate(-740 -3766)">
    <g id="Grupo_1098797" data-name="Grupo 1098797" transform="translate(1 -5981.527)">
      <circle id="Elipse_11310" data-name="Elipse 11310" cx="59" cy="59" r="59" transform="translate(741 9747.527)" fill="#fff"/>
      <g id="Grupo_1098210" data-name="Grupo 1098210" transform="translate(0 208.528)">
        <g transform="matrix(1, 0, 0, 1, 739, 9539)" filter="url(#Elipse_9685)">
          <g id="Elipse_9685-2" data-name="Elipse 9685" transform="translate(9 7)" fill="#f2e5fd" stroke="#a854f3" stroke-width="5">
            <circle cx="52" cy="52" r="52" stroke="none"/>
            <circle cx="52" cy="52" r="49.5" fill="none"/>
          </g>
        </g>
      </g>
    </g>
    <g id="Layer_22" transform="translate(765.366 3793.531)">
      <g id="Grupo_1099028" data-name="Grupo 1099028" transform="translate(6 0)">
        <g id="Grupo_1098990" data-name="Grupo 1098990" transform="translate(5.59 32.614)">
          <path id="Trazado_873562" data-name="Trazado 873562" d="M57.577,160.809v-.426a1.412,1.412,0,0,1,1.412-1.412h5.526v-5H55.264a3.009,3.009,0,0,1-3-3v-18a3,3,0,0,1,.02-.338,9.286,9.286,0,0,1-8.123-.245v1.524a3.235,3.235,0,0,1-1.8,2.9,21.993,21.993,0,0,1-4.773,1.822l-5.07,1.276a3.7,3.7,0,0,0-2.788,3.378l-1.035,17.852a1.027,1.027,0,0,0,1.026,1.084H58.989A1.412,1.412,0,0,1,57.577,160.809Z" transform="translate(-28.69 -132.384)" fill="#70d6f9"/>
        </g>
        <g id="Grupo_1098991" data-name="Grupo 1098991" transform="translate(16.011 12.583)">
          <path id="Trazado_873563" data-name="Trazado 873563" d="M87.144,68.69h.48a9.31,9.31,0,0,0,2.1-5.884V54.947a4.841,4.841,0,0,0-1.338-3.341,1.716,1.716,0,0,0-2.306-.153,9.4,9.4,0,0,1-11.441-.006,1.715,1.715,0,0,0-2.3.156l0,0a4.842,4.842,0,0,0-1.338,3.341v7.859a9.391,9.391,0,0,0,9.364,9.364,9.271,9.271,0,0,0,3.809-.817A3.01,3.01,0,0,1,87.144,68.69Z" transform="translate(-70.992 -51.076)" fill="#f9d0b4"/>
        </g>
        <g id="Grupo_1098992" data-name="Grupo 1098992" transform="translate(34.715 17.177)">
          <path id="Trazado_873564" data-name="Trazado 873564" d="M147.538,69.723a3.926,3.926,0,0,0-.6.048v7.089c0,.211-.01.42-.024.628a3.907,3.907,0,1,0,.624-7.764Z" transform="translate(-146.913 -69.723)" fill="#f9d0b4"/>
        </g>
        <g id="Grupo_1098993" data-name="Grupo 1098993" transform="translate(11.501 17.177)">
          <path id="Trazado_873565" data-name="Trazado 873565" d="M57.193,76.859V69.771a3.911,3.911,0,1,0,.024,7.717h0C57.2,77.279,57.193,77.07,57.193,76.859Z" transform="translate(-52.683 -69.723)" fill="#f9d0b4"/>
        </g>
        <g id="Grupo_1098994" data-name="Grupo 1098994" transform="translate(13.442 3.099)">
          <path id="Trazado_873566" data-name="Trazado 873566" d="M81.825,18.67a.579.579,0,0,1-.59-.555c-.072-5.218-6.03-6.2-11.964-5.173a10.491,10.491,0,0,0-8.708,10.337v3.915a3.885,3.885,0,0,1,1.968-.535,3.928,3.928,0,0,1,.6.048v-.77a4.841,4.841,0,0,1,1.338-3.341l0,0a1.714,1.714,0,0,1,2.3-.156,9.4,9.4,0,0,0,11.441.006,1.715,1.715,0,0,1,2.306.153,4.842,4.842,0,0,1,1.338,3.341v.77a3.929,3.929,0,0,1,.6-.048,3.884,3.884,0,0,1,1.989.548V23.991c0-4.673-1.687-5.322-2.624-5.322Z" transform="translate(-60.564 -12.58)" fill="#5b5d60"/>
        </g>
        <g id="Grupo_1098995" data-name="Grupo 1098995" transform="translate(16.129 36.598)">
          <path id="Trazado_873567" data-name="Trazado 873567" d="M76.992,155.86a.834.834,0,0,0,1.18,0l1.607-1.607a.834.834,0,0,0,0-1.18l-4.515-4.514A3.229,3.229,0,0,1,74.6,149a24.81,24.81,0,0,1-3.128,1.339Z" transform="translate(-71.47 -148.558)" fill="#9be5f9"/>
        </g>
        <g id="Grupo_1098996" data-name="Grupo 1098996" transform="translate(26.314 38.508)">
          <path id="Trazado_873568" data-name="Trazado 873568" d="M114.662,161.7a.832.832,0,0,0,1,.134V156.31l-2.6,2.6a.834.834,0,0,0,0,1.18Z" transform="translate(-112.811 -156.31)" fill="#9be5f9"/>
        </g>
        <g id="Grupo_1098997" data-name="Grupo 1098997" transform="translate(5.59 51.858)">
          <path id="Trazado_873569" data-name="Trazado 873569" d="M35.725,210.5h-6.48l-.551,9.509a1.027,1.027,0,0,0,1.026,1.084h6.006Z" transform="translate(-28.691 -210.5)" fill="#f9d0b4"/>
        </g>
        <g id="Grupo_1098998" data-name="Grupo 1098998" transform="translate(19.923 32.614)">
          <path id="Trazado_873570" data-name="Trazado 873570" d="M93.507,140.884l2.6-2.6v-5.31a3,3,0,0,1,.02-.338,9.285,9.285,0,0,1-8.123-.245v1.524a3.233,3.233,0,0,1-1.137,2.46l4.514,4.514a.831.831,0,0,1,.243.579c.229.016.46.027.693.027.318,0,.632-.017.942-.046A.83.83,0,0,1,93.507,140.884Z" transform="translate(-86.872 -132.385)" fill="#f9d0b4"/>
        </g>
        <g id="Grupo_1098999" data-name="Grupo 1098999" transform="translate(34.476 59.201)">
          <path id="Trazado_873571" data-name="Trazado 873571" d="M163.159,243.556h-15.8a1.412,1.412,0,0,1-1.412-1.412v-.426a1.412,1.412,0,0,1,1.412-1.412h15.8a1.412,1.412,0,0,1,1.412,1.412v.426A1.412,1.412,0,0,1,163.159,243.556Z" transform="translate(-145.944 -240.305)" fill="#edf4fc"/>
        </g>
        <g id="Grupo_1099000" data-name="Grupo 1099000" transform="translate(29.163 30.197)">
          <path id="Trazado_873572" data-name="Trazado 873572" d="M150.631,122.575H127.377a3.009,3.009,0,0,0-3,3v18a3.009,3.009,0,0,0,3,3h9.251v-7.056a1.2,1.2,0,0,1,1.2-1.2h2.36a1.2,1.2,0,0,1,1.2,1.2v7.056h9.251a3.009,3.009,0,0,0,3-3v-18A3.009,3.009,0,0,0,150.631,122.575Z" transform="translate(-124.377 -122.575)" fill="#5290db"/>
        </g>
        <g id="Grupo_1099001" data-name="Grupo 1099001" transform="translate(41.415 45.949)">
          <path id="Trazado_873573" data-name="Trazado 873573" d="M178.86,199.766V187.71a1.2,1.2,0,0,0-1.2-1.2H175.3a1.2,1.2,0,0,0-1.2,1.2v12.056Z" transform="translate(-174.109 -186.514)" fill="#c7d7e5"/>
        </g>
        <g id="Grupo_1099002" data-name="Grupo 1099002" transform="translate(42.497 13.971)">
          <path id="Trazado_873574" data-name="Trazado 873574" d="M193.789,68.536H180.21a1.71,1.71,0,0,1-1.71-1.71V58.421a1.71,1.71,0,0,1,1.71-1.71h13.579a1.71,1.71,0,0,1,1.71,1.71v8.405A1.709,1.709,0,0,1,193.789,68.536Z" transform="translate(-178.5 -56.711)" fill="#fc657e"/>
        </g>
        <g id="Grupo_1099003" data-name="Grupo 1099003" transform="translate(4.974 31.998)">
          <path id="Trazado_873575" data-name="Trazado 873575" d="M57.106,160.954H27.835a1.643,1.643,0,0,1-1.64-1.735l1.035-17.854a4.292,4.292,0,0,1,3.252-3.939l5.07-1.276a21.5,21.5,0,0,0,4.651-1.777,2.6,2.6,0,0,0,1.461-2.349V130.5a.616.616,0,0,1,.9-.546,8.67,8.67,0,0,0,7.585.229.616.616,0,0,1,.864.631,2.4,2.4,0,0,0-.017.269v18a2.387,2.387,0,0,0,2.384,2.384h9.251a.616.616,0,0,1,.616.616v5a.616.616,0,0,1-.616.616H57.106a.8.8,0,0,0-.8.8v.426a.8.8,0,0,0,.8.8.616.616,0,0,1,0,1.232ZM42.894,131.462v.563a3.827,3.827,0,0,1-2.148,3.454,22.582,22.582,0,0,1-4.895,1.866l-5.07,1.276a3.066,3.066,0,0,0-2.323,2.815l-1.035,17.854a.411.411,0,0,0,.411.433H55.241a2.019,2.019,0,0,1-.163-.8V158.5a2.03,2.03,0,0,1,2.028-2.028h4.91V152.7H53.381a3.62,3.62,0,0,1-3.616-3.616V131.658a9.832,9.832,0,0,1-3.172.522,9.946,9.946,0,0,1-3.7-.717Z" transform="translate(-26.192 -129.885)"/>
        </g>
        <g id="Grupo_1099004" data-name="Grupo 1099004" transform="translate(12.007 46.051)">
          <path id="Trazado_873576" data-name="Trazado 873576" d="M55.356,203.716a.616.616,0,0,1-.616-.616V187.544a.616.616,0,0,1,1.232,0V203.1A.616.616,0,0,1,55.356,203.716Z" transform="translate(-54.74 -186.928)"/>
        </g>
        <g id="Grupo_1099005" data-name="Grupo 1099005" transform="translate(22.358 26.17)">
          <path id="Trazado_873577" data-name="Trazado 873577" d="M99.908,108.548A3.933,3.933,0,0,1,96.9,107.24a.616.616,0,0,1,.944-.791,2.893,2.893,0,0,0,4.13,0,.616.616,0,0,1,.944.791A3.932,3.932,0,0,1,99.908,108.548Z" transform="translate(-96.755 -106.229)"/>
        </g>
        <g id="Grupo_1099006" data-name="Grupo 1099006" transform="translate(28.477 20.26)">
          <circle id="Elipse_11467" data-name="Elipse 11467" cx="1.258" cy="1.258" r="1.258"/>
        </g>
        <g id="Grupo_1099007" data-name="Grupo 1099007" transform="translate(20.028 20.26)">
          <circle id="Elipse_11468" data-name="Elipse 11468" cx="1.258" cy="1.258" r="1.258"/>
        </g>
        <g id="Grupo_1099008" data-name="Grupo 1099008" transform="translate(44.484 16.43)">
          <path id="Trazado_873578" data-name="Trazado 873578" d="M190.023,73.6a.614.614,0,0,1-.436-.18l-2.838-2.838a.615.615,0,0,1,0-.871l2.838-2.838a.616.616,0,0,1,.871.871l-2.4,2.4,2.4,2.4a.616.616,0,0,1-.435,1.051Z" transform="translate(-186.568 -66.69)"/>
        </g>
        <g id="Grupo_1099009" data-name="Grupo 1099009" transform="translate(53.437 16.429)">
          <path id="Trazado_873579" data-name="Trazado 873579" d="M223.525,73.6a.616.616,0,0,1-.436-1.051l2.4-2.4-2.4-2.4a.616.616,0,0,1,.871-.871l2.838,2.838a.615.615,0,0,1,0,.871l-2.838,2.839A.614.614,0,0,1,223.525,73.6Z" transform="translate(-222.909 -66.689)"/>
        </g>
        <g id="Grupo_1099010" data-name="Grupo 1099010" transform="translate(49.395 16.065)">
          <path id="Trazado_873580" data-name="Trazado 873580" d="M207.116,72.847a.616.616,0,0,1-.589-.8l1.971-6.405a.616.616,0,0,1,1.177.362L207.7,72.412A.616.616,0,0,1,207.116,72.847Z" transform="translate(-206.5 -65.209)"/>
        </g>
        <g id="Grupo_1099011" data-name="Grupo 1099011" transform="translate(7.696 5.672)">
          <path id="Trazado_873581" data-name="Trazado 873581" d="M40.385,24.546a1.92,1.92,0,0,1-1.527-1.5c0-.025-.074-.025-.074,0a1.92,1.92,0,0,1-1.527,1.5c-.025,0-.025.049,0,.074a1.92,1.92,0,0,1,1.527,1.5c0,.025.074.025.074,0a1.92,1.92,0,0,1,1.527-1.5C40.41,24.6,40.41,24.546,40.385,24.546Z" transform="translate(-37.238 -23.025)" fill="#70d6f9"/>
        </g>
        <g id="Grupo_1099012" data-name="Grupo 1099012" transform="translate(0 18.378)">
          <path id="Trazado_873582" data-name="Trazado 873582" d="M6.79,77.532h.567V78.1a.778.778,0,0,0,.788.788.789.789,0,0,0,.788-.764v-.591H9.5a.778.778,0,0,0,.788-.788.789.789,0,0,0-.764-.788H8.933v-.567a.778.778,0,0,0-.788-.788.789.789,0,0,0-.788.764v.591H6.79A.778.778,0,0,0,6,76.743a.763.763,0,0,0,.788.788h0Z" transform="translate(-6 -74.6)" fill="#fc657e"/>
        </g>
        <g id="Grupo_1099013" data-name="Grupo 1099013" transform="translate(3.449 33.628)">
          <circle id="Elipse_11469" data-name="Elipse 11469" cx="0.838" cy="0.838" r="0.838" fill="#f5c84c"/>
        </g>
        <g id="Grupo_1099014" data-name="Grupo 1099014" transform="translate(38.928 0)">
          <circle id="Elipse_11470" data-name="Elipse 11470" cx="0.838" cy="0.838" r="0.838" fill="#87d147"/>
        </g>
        <g id="Grupo_1099015" data-name="Grupo 1099015" transform="translate(48.203 5.26)">
          <path id="Trazado_873583" data-name="Trazado 873583" d="M201.7,23.53a2.734,2.734,0,0,0,2.193-2.143c0-.049.1-.049.1,0a2.734,2.734,0,0,0,2.193,2.143c.049,0,.049.074,0,.1a2.734,2.734,0,0,0-2.193,2.143c0,.049-.1.049-.1,0a2.734,2.734,0,0,0-2.193-2.143c-.049-.025-.049-.1,0-.1Z" transform="translate(-201.663 -21.35)" fill="#f5c84c"/>
        </g>
        <g id="Grupo_1099016" data-name="Grupo 1099016" transform="translate(15.395 11.966)">
          <path id="Trazado_873584" data-name="Trazado 873584" d="M78.471,70.9a9.991,9.991,0,0,1-9.98-9.98V53.059A5.434,5.434,0,0,1,70,49.293a2.326,2.326,0,0,1,3.13-.22,8.788,8.788,0,0,0,10.681.007,2.326,2.326,0,0,1,3.132.213,5.434,5.434,0,0,1,1.508,3.766v7.859a9.985,9.985,0,0,1-2.233,6.272.616.616,0,0,1-.478.228h-.48a2.383,2.383,0,0,0-2.368,2.116.616.616,0,0,1-.359.492A9.844,9.844,0,0,1,78.471,70.9ZM71.68,49.8a1.082,1.082,0,0,0-.786.336,4.211,4.211,0,0,0-1.171,2.92v7.859a8.758,8.758,0,0,0,8.748,8.748,8.613,8.613,0,0,0,3.257-.635,3.614,3.614,0,0,1,3.532-2.844h.18a8.746,8.746,0,0,0,1.779-5.268V53.059a4.208,4.208,0,0,0-1.167-2.916,1.1,1.1,0,0,0-1.48-.094,10.02,10.02,0,0,1-12.2-.006A1.117,1.117,0,0,0,71.68,49.8Zm10.6,19.661h0Z" transform="translate(-68.491 -48.571)"/>
        </g>
        <g id="Grupo_1099017" data-name="Grupo 1099017" transform="translate(34.099 16.561)">
          <path id="Trazado_873585" data-name="Trazado 873585" d="M145.654,76.273a4.523,4.523,0,0,1-.723-.062.616.616,0,0,1-.516-.649c.015-.226.022-.412.022-.587V67.886a.616.616,0,0,1,.521-.609,4.525,4.525,0,1,1,.7,9Zm.015-7.819v6.52c0,.022,0,.044,0,.067a3.293,3.293,0,0,0,0-6.587Z" transform="translate(-144.413 -67.223)"/>
        </g>
        <g id="Grupo_1099018" data-name="Grupo 1099018" transform="translate(10.885 16.561)">
          <path id="Trazado_873586" data-name="Trazado 873586" d="M54.708,76.273a4.525,4.525,0,1,1,.7-9,.616.616,0,0,1,.521.609v7.089c0,.175.007.361.022.586a.616.616,0,0,1-.516.649A4.46,4.46,0,0,1,54.708,76.273Zm-.015-7.819a3.294,3.294,0,0,0,0,6.587c0-.022,0-.045,0-.067Z" transform="translate(-50.183 -67.222)"/>
        </g>
        <g id="Grupo_1099019" data-name="Grupo 1099019" transform="translate(12.826 2.486)">
          <path id="Trazado_873587" data-name="Trazado 873587" d="M82.566,25.944a.616.616,0,0,1-.314-.086,3.251,3.251,0,0,0-2.181-.421.616.616,0,0,1-.71-.609v-.77a4.208,4.208,0,0,0-1.167-2.916,1.1,1.1,0,0,0-1.48-.094,10.02,10.02,0,0,1-12.2-.006,1.1,1.1,0,0,0-1.477.1,4.211,4.211,0,0,0-1.171,2.92v.77a.616.616,0,0,1-.71.609,3.335,3.335,0,0,0-.506-.04,3.288,3.288,0,0,0-1.657.451.616.616,0,0,1-.927-.532V21.4a11.084,11.084,0,0,1,9.219-10.943c4.7-.812,8.62-.267,10.744,1.5a5.38,5.38,0,0,1,1.94,4.223c1.213.011,3.215.807,3.215,5.937v3.214a.616.616,0,0,1-.616.616Zm-1.974-1.779a4.488,4.488,0,0,1,1.358.216V22.114c0-2.99-.732-4.705-2.009-4.705a1.2,1.2,0,0,1-1.206-1.163,4.212,4.212,0,0,0-1.5-3.344c-1.846-1.533-5.4-1.981-9.747-1.231a9.855,9.855,0,0,0-8.2,9.73v2.972a4.494,4.494,0,0,1,1.337-.209v-.106a5.434,5.434,0,0,1,1.508-3.766,2.326,2.326,0,0,1,3.13-.22,8.788,8.788,0,0,0,10.681.007,2.326,2.326,0,0,1,3.132.213,5.434,5.434,0,0,1,1.508,3.766Zm-.625-7.935h0Z" transform="translate(-58.064 -10.089)"/>
        </g>
        <g id="Grupo_1099020" data-name="Grupo 1099020" transform="translate(15.513 35.983)">
          <path id="Trazado_873588" data-name="Trazado 873588" d="M75.7,154.836a1.446,1.446,0,0,1-1.026-.424L69.15,148.89a.616.616,0,0,1,.238-1.019,24.146,24.146,0,0,0,3.053-1.308,2.627,2.627,0,0,0,.54-.357.616.616,0,0,1,.835.033l4.514,4.514a1.452,1.452,0,0,1,0,2.051l-1.607,1.607A1.445,1.445,0,0,1,75.7,154.836Zm-.154-1.295a.219.219,0,0,0,.309,0l1.607-1.607a.219.219,0,0,0,0-.309l-4.142-4.142a3.78,3.78,0,0,1-.332.185c-.817.4-1.529.736-2.282,1.033Z" transform="translate(-68.97 -146.059)"/>
        </g>
        <g id="Grupo_1099021" data-name="Grupo 1099021" transform="translate(25.699 37.892)">
          <path id="Trazado_873589" data-name="Trazado 873589" d="M113.369,160.674a1.445,1.445,0,0,1-1.023-.421l-1.607-1.607a1.452,1.452,0,0,1,0-2.051l2.605-2.6a.616.616,0,0,1,1.051.436v5.526a.615.615,0,0,1-.314.537A1.45,1.45,0,0,1,113.369,160.674Zm-.206-4.762-1.554,1.554a.219.219,0,0,0,0,.309l1.554,1.554Z" transform="translate(-110.315 -153.809)"/>
        </g>
        <g id="Grupo_1099022" data-name="Grupo 1099022" transform="translate(4.974 51.242)">
          <path id="Trazado_873590" data-name="Trazado 873590" d="M33.841,219.825H27.835a1.643,1.643,0,0,1-1.64-1.735l.552-9.51a.616.616,0,0,1,.615-.58h6.48a.616.616,0,0,1,.616.616v10.593A.616.616,0,0,1,33.841,219.825Zm-5.9-10.593-.518,8.929a.411.411,0,0,0,.411.433h5.39v-9.362H27.942Z" transform="translate(-26.192 -208)"/>
        </g>
        <g id="Grupo_1099023" data-name="Grupo 1099023" transform="translate(19.308 31.998)">
          <path id="Trazado_873591" data-name="Trazado 873591" d="M90.44,140.221c-.225,0-.466-.009-.736-.028a.616.616,0,0,1-.573-.606.214.214,0,0,0-.063-.151l-4.514-4.515a.616.616,0,0,1,.036-.9,2.615,2.615,0,0,0,.921-1.992V130.5a.616.616,0,0,1,.9-.546,8.67,8.67,0,0,0,7.585.229.616.616,0,0,1,.864.631,2.4,2.4,0,0,0-.017.269v5.31a.616.616,0,0,1-.18.436l-2.6,2.6a.216.216,0,0,0-.061.146.616.616,0,0,1-.556.59C91.1,140.2,90.766,140.221,90.44,140.221Zm.942-.662h0Zm-1.15-.572c.232.006.443,0,.668-.009a1.436,1.436,0,0,1,.288-.413l2.425-2.425v-4.482a9.832,9.832,0,0,1-3.172.522,9.95,9.95,0,0,1-3.7-.717v.563a3.84,3.84,0,0,1-.887,2.456l4.083,4.083A1.448,1.448,0,0,1,90.232,138.987Z" transform="translate(-84.373 -129.886)"/>
        </g>
        <g id="Grupo_1099024" data-name="Grupo 1099024" transform="translate(33.86 58.585)">
          <path id="Trazado_873592" data-name="Trazado 873592" d="M161.275,242.288h-15.8a2.03,2.03,0,0,1-2.028-2.028v-.426a2.03,2.03,0,0,1,2.028-2.028h15.8a2.03,2.03,0,0,1,2.028,2.028v.426A2.03,2.03,0,0,1,161.275,242.288Zm-15.8-3.25a.8.8,0,0,0-.8.8v.426a.8.8,0,0,0,.8.8h15.8a.8.8,0,0,0,.8-.8v-.426a.8.8,0,0,0-.8-.8Z" transform="translate(-143.444 -237.806)"/>
        </g>
        <g id="Grupo_1099025" data-name="Grupo 1099025" transform="translate(28.547 29.581)">
          <path id="Trazado_873593" data-name="Trazado 873593" d="M148.746,145.31H139.5a.616.616,0,0,1-.616-.616v-7.056a.58.58,0,0,0-.579-.58h-2.36a.58.58,0,0,0-.58.58v7.056a.616.616,0,0,1-.616.616h-9.251a3.62,3.62,0,0,1-3.616-3.616v-18a3.62,3.62,0,0,1,3.616-3.616h23.253a3.62,3.62,0,0,1,3.616,3.616v18A3.62,3.62,0,0,1,148.746,145.31Zm-8.635-1.232h8.635a2.387,2.387,0,0,0,2.384-2.384v-18a2.387,2.387,0,0,0-2.384-2.384H125.493a2.387,2.387,0,0,0-2.384,2.384v18a2.387,2.387,0,0,0,2.384,2.384h8.635v-6.44a1.814,1.814,0,0,1,1.811-1.811h2.36a1.813,1.813,0,0,1,1.811,1.811Z" transform="translate(-121.877 -120.075)"/>
        </g>
        <g id="Grupo_1099026" data-name="Grupo 1099026" transform="translate(40.799 45.333)">
          <path id="Trazado_873594" data-name="Trazado 873594" d="M176.975,198.5h-4.751a.616.616,0,0,1-.616-.616V185.825a1.814,1.814,0,0,1,1.811-1.811h2.36a1.813,1.813,0,0,1,1.811,1.811v12.056a.616.616,0,0,1-.616.616Zm-4.135-1.232h3.519V185.825a.58.58,0,0,0-.579-.58h-2.36a.58.58,0,0,0-.58.58v11.441Z" transform="translate(-171.609 -184.014)"/>
        </g>
        <g id="Grupo_1099027" data-name="Grupo 1099027" transform="translate(41.881 13.355)">
          <path id="Trazado_873595" data-name="Trazado 873595" d="M191.9,67.268H178.326A2.328,2.328,0,0,1,176,64.942V56.537a2.328,2.328,0,0,1,2.326-2.326H191.9a2.328,2.328,0,0,1,2.326,2.326v8.405a2.328,2.328,0,0,1-2.325,2.326ZM178.326,55.443a1.1,1.1,0,0,0-1.094,1.094v8.406a1.1,1.1,0,0,0,1.094,1.094H191.9A1.1,1.1,0,0,0,193,64.942V56.537a1.1,1.1,0,0,0-1.094-1.094H178.326Z" transform="translate(-176 -54.211)"/>
        </g>
      </g>
    </g>
  </g>
</svg>
