<svg xmlns="http://www.w3.org/2000/svg" width="150" height="128" viewBox="0 0 150 128">
  <g id="Grupo_1098857" data-name="Grupo 1098857" transform="translate(-881.093 -2979.838)">
    <rect id="Rectángulo_400925" data-name="Rectángulo 400925" width="150" height="128" rx="23" transform="translate(881.093 2979.838)" fill="#f7eefe"/>
    <g id="Grupo_1098843" data-name="Grupo 1098843">
      <g id="control-contable" transform="translate(891.298 2983.523)">
        <path id="Trazado_872577" data-name="Trazado 872577" d="M40.382,73.091c-30.24,0-25.041,21.7-25.041,21.7h46.77s5.2-21.7-25.041-21.7" fill="#99edf2"/>
        <path id="Trazado_872579" data-name="Trazado 872579" d="M93.144,38.991H92.19a22.069,22.069,0,1,1-6.464-15.619A22.011,22.011,0,0,1,92.19,38.991H94.1A23.991,23.991,0,1,0,70.107,62.982,23.991,23.991,0,0,0,94.1,38.991Z" fill="#4529c7"/>
        <path id="Trazado_872580" data-name="Trazado 872580" d="M69.164,26.76V41.092a.954.954,0,1,0,1.908,0V26.76a.954.954,0,0,0-1.908,0Z" fill="#4529c7"/>
        <path id="Trazado_872581" data-name="Trazado 872581" d="M67.085,40.5H80.077a.954.954,0,0,0,0-1.908H67.085a.954.954,0,0,0,0,1.908Z" fill="#4529c7"/>
        <path id="Trazado_872582" data-name="Trazado 872582" d="M69,19.889v4.063a.954.954,0,1,0,1.908,0V19.889a.954.954,0,0,0-1.908,0Z" fill="#4529c7"/>
        <path id="Trazado_872583" data-name="Trazado 872583" d="M70.911,58.791V54.342a.954.954,0,1,0-1.908,0v4.449a.954.954,0,0,0,1.908,0Z" fill="#4529c7"/>
        <path id="Trazado_872584" data-name="Trazado 872584" d="M85.158,40.491h4.063a.954.954,0,1,0,0-1.908H85.158a.954.954,0,1,0,0,1.908Z" fill="#4529c7"/>
        <path id="Trazado_872585" data-name="Trazado 872585" d="M77.022,53.022l2.23,3.409a.953.953,0,0,0,1.6-1.04l-2.23-3.409A.963.963,0,0,0,77.3,51.7.953.953,0,0,0,77.022,53.022Z" fill="#4529c7"/>
        <path id="Trazado_872586" data-name="Trazado 872586" d="M82.446,48.081l3.537,2.09a.954.954,0,0,0,.976-1.64l-3.537-2.1a.958.958,0,0,0-1.308.332A.947.947,0,0,0,82.446,48.081Z" fill="#4529c7"/>
        <path id="Trazado_872587" data-name="Trazado 872587" d="M78.6,26.856l2.23-3.141a.953.953,0,1,0-1.554-1.1l-2.23,3.141a.959.959,0,0,0,.225,1.329A.949.949,0,0,0,78.6,26.856Z" fill="#4529c7"/>
        <path id="Trazado_872588" data-name="Trazado 872588" d="M83.39,32.645l3.537-1.962a.955.955,0,0,0-.922-1.672l-3.537,1.962a.951.951,0,0,0-.364,1.3A.939.939,0,0,0,83.39,32.645Z" fill="#4529c7"/>
        <path id="Trazado_872589" data-name="Trazado 872589" d="M54.693,39.259H50.63a.954.954,0,1,0,0,1.908h4.063a.954.954,0,0,0,0-1.908Z" fill="#4529c7"/>
        <path id="Trazado_872590" data-name="Trazado 872590" d="M61.232,52.648,59,56.057a.953.953,0,0,0,1.6,1.04l2.23-3.409a.953.953,0,0,0-.279-1.319A.963.963,0,0,0,61.232,52.648Z" fill="#4529c7"/>
        <path id="Trazado_872591" data-name="Trazado 872591" d="M56.44,47.116,52.9,49.207a.954.954,0,0,0,.975,1.64l3.537-2.09a.954.954,0,1,0-.975-1.64Z" fill="#4529c7"/>
        <path id="Trazado_872592" data-name="Trazado 872592" d="M62.807,26.427l-2.23-3.141a.957.957,0,0,0-1.329-.225.948.948,0,0,0-.225,1.329l2.23,3.141a.953.953,0,1,0,1.554-1.1Z" fill="#4529c7"/>
        <path id="Trazado_872593" data-name="Trazado 872593" d="M57.383,31.648l-3.537-1.962a.955.955,0,0,0-.922,1.672l3.537,1.962a.955.955,0,1,0,.922-1.672Z" fill="#4529c7"/>
        <path id="Trazado_872594" data-name="Trazado 872594" d="M65.091,55.907A17.055,17.055,0,1,1,48.036,38.852,17.051,17.051,0,0,1,65.091,55.907Z" fill="#fff"/>
        <path id="Trazado_872595" data-name="Trazado 872595" d="M56.762,55.907A17.055,17.055,0,1,1,39.707,38.852,17.051,17.051,0,0,1,56.762,55.907Z" fill="#99edf2"/>
        <path id="Trazado_872596" data-name="Trazado 872596" d="M65.091,56.046h-.954A16.1,16.1,0,1,1,59.42,44.662a16.04,16.04,0,0,1,4.717,11.384h1.908a18,18,0,1,0-18,18,18,18,0,0,0,18-18Z" fill="#4529c7"/>
        <path id="Trazado_872597" data-name="Trazado 872597" d="M24.045,94.541a16.367,16.367,0,0,1-.311-3.291,17.349,17.349,0,0,1,.75-5.113,14.414,14.414,0,0,1,6.207-8.018c3.58-2.294,9.037-3.956,17.345-3.956a1.083,1.083,0,1,0,0-2.165,41.108,41.108,0,0,0-13.818,2.037c-5.371,1.9-8.6,5-10.409,8.233a18.49,18.49,0,0,0-2.24,8.983,17.03,17.03,0,0,0,.375,3.795,1.08,1.08,0,1,0,2.1-.5Z" fill="#4529c7"/>
        <path id="Trazado_872598" data-name="Trazado 872598" d="M70.826,95.045A18.46,18.46,0,0,0,71.2,91.25a19.668,19.668,0,0,0-.847-5.757,16.622,16.622,0,0,0-7.107-9.2c-4.031-2.584-9.926-4.3-18.5-4.3a1.083,1.083,0,0,0,0,2.165,39.242,39.242,0,0,1,13.1,1.908c4.931,1.769,7.665,4.459,9.24,7.257a16.191,16.191,0,0,1,1.962,7.922,18.669,18.669,0,0,1-.161,2.412c-.043.289-.075.515-.107.665l-.032.161-.011.032v.011a1.073,1.073,0,0,0,.793,1.3A1.055,1.055,0,0,0,70.826,95.045Z" fill="#4529c7"/>
        <path id="Trazado_872599" data-name="Trazado 872599" d="M84.7,102.956a19.017,19.017,0,1,1,19.017-19.017A19.014,19.014,0,0,1,84.7,102.956Z" fill="#fff"/>
        <path id="Trazado_872600" data-name="Trazado 872600" d="M84.7,102.012a18.061,18.061,0,1,1,12.778-5.3,18.027,18.027,0,0,1-12.778,5.3.954.954,0,0,0,0,1.908A19.971,19.971,0,1,0,64.726,83.949,19.969,19.969,0,0,0,84.7,103.92a.954.954,0,1,0,0-1.908Z" fill="#4529c7"/>
      </g>
      <g id="programacion-web" transform="translate(964.161 3056.777)">
        <path id="Trazado_873004" data-name="Trazado 873004" d="M118.022,186.257a.4.4,0,0,1-.262-.1l-2.618-2.229a.4.4,0,0,1,0-.616l2.618-2.229a.4.4,0,1,1,.524.616l-2.256,1.921,2.256,1.921a.4.4,0,0,1-.263.713Zm0,0" transform="translate(-108.353 -170.528)" fill="#4529c7"/>
        <path id="Trazado_873004_-_Contorno" data-name="Trazado 873004 - Contorno" d="M118.022,186.507a.655.655,0,0,1-.424-.156l-2.618-2.229a.655.655,0,0,1,0-1l2.618-2.23a.654.654,0,1,1,.848,1l-2.032,1.731,2.033,1.731a.655.655,0,0,1-.425,1.153Zm0-5.268a.152.152,0,0,0-.1.037L115.3,183.5a.155.155,0,0,0,0,.236l2.618,2.229a.152.152,0,0,0,.1.037.155.155,0,0,0,.1-.272l-2.48-2.112,2.48-2.112a.154.154,0,0,0-.1-.272Z" transform="translate(-108.353 -170.528)" fill="#4529c7"/>
        <path id="Trazado_873005" data-name="Trazado 873005" d="M250.112,186.257a.4.4,0,0,1-.263-.713l2.256-1.921L249.85,181.7a.4.4,0,0,1,.524-.616l2.618,2.229a.4.4,0,0,1,0,.616l-2.618,2.229A.4.4,0,0,1,250.112,186.257Zm0,0" transform="translate(-235.275 -170.528)" fill="#4529c7"/>
        <path id="Trazado_873005_-_Contorno" data-name="Trazado 873005 - Contorno" d="M250.112,186.507a.655.655,0,0,1-.425-1.153l2.033-1.731-2.033-1.731a.654.654,0,1,1,.849-1l2.618,2.229a.655.655,0,0,1,0,1l-2.618,2.229A.655.655,0,0,1,250.112,186.507Zm0-5.268a.155.155,0,0,0-.1.272l2.48,2.112-2.48,2.112a.155.155,0,0,0,.1.272.152.152,0,0,0,.1-.037l2.618-2.229a.155.155,0,0,0,0-.236l-2.618-2.229A.152.152,0,0,0,250.112,181.239Z" transform="translate(-235.275 -170.528)" fill="#4529c7"/>
        <path id="Trazado_873006" data-name="Trazado 873006" d="M189.359,161.58a.412.412,0,0,1-.084-.009.4.4,0,0,1-.312-.479l1.632-7.747a.4.4,0,1,1,.792.167l-1.632,7.747A.4.4,0,0,1,189.359,161.58Zm0,0" transform="translate(-178.033 -144.18)" fill="#4529c7"/>
        <path id="Trazado_873006_-_Contorno" data-name="Trazado 873006 - Contorno" d="M189.359,161.83a.665.665,0,0,1-.135-.014.656.656,0,0,1-.506-.776l1.632-7.747a.655.655,0,0,1,1.281.27L190,161.311A.657.657,0,0,1,189.359,161.83Zm1.631-8.556a.155.155,0,0,0-.151.123l-1.632,7.747a.155.155,0,1,0,.3.064l1.632-7.747a.155.155,0,0,0-.119-.183A.157.157,0,0,0,190.99,153.274Z" transform="translate(-178.033 -144.18)" fill="#4529c7"/>
        <path id="Trazado_873007" data-name="Trazado 873007" d="M21.79,21.621H2.717A2.72,2.72,0,0,1,0,18.9V2.717A2.72,2.72,0,0,1,2.717,0H21.79a2.72,2.72,0,0,1,2.717,2.717V18.9A2.72,2.72,0,0,1,21.79,21.621ZM2.717.809A1.91,1.91,0,0,0,.809,2.717V18.9a1.91,1.91,0,0,0,1.907,1.907H21.79A1.91,1.91,0,0,0,23.7,18.9V2.717A1.91,1.91,0,0,0,21.79.809Zm0,0" fill="#4529c7"/>
        <path id="Trazado_873007_-_Contorno" data-name="Trazado 873007 - Contorno" d="M21.79,21.871H2.717A2.97,2.97,0,0,1-.25,18.9V2.717A2.97,2.97,0,0,1,2.717-.25H21.79a2.97,2.97,0,0,1,2.966,2.967V18.9A2.97,2.97,0,0,1,21.79,21.871ZM2.717.25A2.469,2.469,0,0,0,.25,2.717V18.9a2.469,2.469,0,0,0,2.467,2.467H21.79A2.469,2.469,0,0,0,24.256,18.9V2.717A2.469,2.469,0,0,0,21.79.25ZM21.79,21.062H2.717A2.16,2.16,0,0,1,.559,18.9V2.717A2.16,2.16,0,0,1,2.717.559H21.79a2.16,2.16,0,0,1,2.157,2.157V18.9A2.16,2.16,0,0,1,21.79,21.062Zm-19.073-20A1.659,1.659,0,0,0,1.059,2.717V18.9a1.659,1.659,0,0,0,1.657,1.657H21.79A1.659,1.659,0,0,0,23.447,18.9V2.717A1.659,1.659,0,0,0,21.79,1.059Z" fill="#4529c7"/>
        <path id="Trazado_873008" data-name="Trazado 873008" d="M24.1,98.9H.4a.4.4,0,1,1,0-.809H24.1a.4.4,0,1,1,0,.809Zm0,0" transform="translate(0 -92.42)" fill="#4529c7"/>
        <path id="Trazado_873008_-_Contorno" data-name="Trazado 873008 - Contorno" d="M24.1,99.149H.4a.655.655,0,0,1,0-1.309H24.1a.655.655,0,0,1,0,1.309ZM.4,98.34a.155.155,0,0,0,0,.309H24.1a.155.155,0,0,0,0-.309Z" transform="translate(0 -92.42)" fill="#4529c7"/>
        <path id="Trazado_873009" data-name="Trazado 873009" d="M98.73,36.85a1.28,1.28,0,1,1,1.28-1.28A1.282,1.282,0,0,1,98.73,36.85Zm0-1.752a.471.471,0,1,0,.471.471A.472.472,0,0,0,98.73,35.1Zm0,0" transform="translate(-91.817 -32.307)" fill="#4529c7"/>
        <path id="Trazado_873010" data-name="Trazado 873010" d="M30.667,36.635a1.28,1.28,0,1,1,1.28-1.28A1.282,1.282,0,0,1,30.667,36.635Zm0-1.752a.471.471,0,1,0,.471.471A.472.472,0,0,0,30.667,34.883Zm0,0" transform="translate(-27.688 -32.105)" fill="#4529c7"/>
      </g>
    </g>
  </g>
</svg>
