<svg xmlns="http://www.w3.org/2000/svg" width="150" height="128" viewBox="0 0 150 128">
  <g id="Grupo_1098856" data-name="Grupo 1098856" transform="translate(-1196.093 -2979.838)">
    <rect id="Rectángulo_400927" data-name="Rectángulo 400927" width="150" height="128" rx="23" transform="translate(1196.093 2979.838)" fill="#f7eefe"/>
    <g id="control-de-pago" transform="translate(1203.146 2983.523)">
      <path id="Trazado_872605" data-name="Trazado 872605" d="M56.4,51.931a9.858,9.858,0,1,1-9.859-9.859A9.858,9.858,0,0,1,56.4,51.931Z" fill="#fff"/>
      <path id="Trazado_872606" data-name="Trazado 872606" d="M50.945,51.931a9.858,9.858,0,1,1-9.858-9.859A9.858,9.858,0,0,1,50.945,51.931Z" fill="#99edf2"/>
      <path id="Trazado_872607" data-name="Trazado 872607" d="M56.4,51.931h-.878A8.977,8.977,0,1,1,52.9,45.586a8.935,8.935,0,0,1,2.624,6.345H57.28A10.737,10.737,0,1,0,46.544,62.668,10.739,10.739,0,0,0,57.28,51.931Z" fill="#4529c7"/>
      <path id="Trazado_872608" data-name="Trazado 872608" d="M61.375,70.012a25.283,25.283,0,0,0-15.018-4.863,28.572,28.572,0,0,0-14.129,3.919,3.791,3.791,0,0,0-1.888,3.3V88.708l.066.154a9.3,9.3,0,0,0,2.646,3.348c1.932,1.625,5.149,3.206,10.1,3.195a27.917,27.917,0,0,0,4.808-.439.874.874,0,0,0-.3-1.724,26.8,26.8,0,0,1-4.512.406c-4.578-.011-7.323-1.416-8.969-2.789a9.074,9.074,0,0,1-1.7-1.877,6.56,6.56,0,0,1-.351-.593l-.077-.154-.011-.033-.022.011.022-.011-.022.011.022-.011-.812.329h.878V72.361a2.019,2.019,0,0,1,1-1.767,26.9,26.9,0,0,1,13.273-3.7,24.188,24.188,0,0,1,10.155,2.251,22.445,22.445,0,0,1,2.811,1.548c.318.209.56.384.724.494l.176.132.044.033.011.011a.872.872,0,0,0,1.229-.121A.91.91,0,0,0,61.375,70.012Z" fill="#4529c7"/>
      <path id="Trazado_872609" data-name="Trazado 872609" d="M62.66,76.478,51.121,98.962a.523.523,0,0,0,.461.757H69.631a.522.522,0,0,0,.461-.274L81.937,76.961a.513.513,0,0,0-.461-.757H63.121A.484.484,0,0,0,62.66,76.478Z" fill="#99edf2"/>
      <path id="Trazado_872610" data-name="Trazado 872610" d="M57.95,75.6l-.779-.4L45.632,97.688a1.432,1.432,0,0,0-.154.637,1.352,1.352,0,0,0,.4.966,1.419,1.419,0,0,0,1,.428H64.921a1.386,1.386,0,0,0,1.23-.747L78,76.489a1.384,1.384,0,0,0,.165-.648,1.352,1.352,0,0,0-.4-.966,1.419,1.419,0,0,0-1-.428H58.411a1.4,1.4,0,0,0-1.241.757l.779.4.779.4-.318-.165v.362a.366.366,0,0,0,.318-.2l-.318-.165v.362H76.766V75.83l-.264.253.264.11V75.83l-.264.253.253-.242H76.4a.306.306,0,0,0,.1.242l.253-.242h.011l-.318-.165-.044.165h.362l-.318-.165L64.6,98.16l.318.165v-.362a.379.379,0,0,0-.318.187l.318.165v-.362H46.873v.362l.264-.253-.264-.11v.362l.264-.253-.253.253h.351a.348.348,0,0,0-.1-.253l-.253.253h-.011l.318.165.044-.165h-.362l.318.165L58.729,76Z" fill="#4529c7"/>
      <path id="Trazado_872611" data-name="Trazado 872611" d="M38.31,77.707v6.828A3.486,3.486,0,0,0,41.8,88.027l9.716-.088a.878.878,0,1,0-.022-1.757l-9.716.088h.011a1.731,1.731,0,0,1-1.735-1.735V77.707a.873.873,0,1,0-1.746,0Z" fill="#4529c7"/>
      <path id="Trazado_872612" data-name="Trazado 872612" d="M47.334,76.9l7.432,4.721a.876.876,0,1,0,.933-1.482l-7.432-4.721a.876.876,0,1,0-.933,1.482Z" fill="#4529c7"/>
      <path id="Trazado_872613" data-name="Trazado 872613" d="M35.818,94.186v9.76a.878.878,0,0,0,1.757,0v-9.76a.878.878,0,0,0-1.757,0Z" fill="#4529c7"/>
      <path id="Trazado_872614" data-name="Trazado 872614" d="M59.224,103.869V98.83a1.131,1.131,0,1,0-2.262,0v5.039a1.131,1.131,0,1,0,2.262,0Z" fill="#4529c7"/>
      <path id="Trazado_872615" data-name="Trazado 872615" d="M62.857,89.477H67a3.312,3.312,0,0,0,2.9-1.713l.714-1.284a2.059,2.059,0,0,0-1.8-3.052H66.195A2.514,2.514,0,0,0,63.911,84.9l-1.647,3.645A.651.651,0,0,0,62.857,89.477Z" fill="#fff"/>
      <path id="Trazado_872616" data-name="Trazado 872616" d="M62.857,89.476v.878H67a4.2,4.2,0,0,0,3.667-2.163l.714-1.3a2.894,2.894,0,0,0,.362-1.416,2.941,2.941,0,0,0-2.931-2.942H66.195a3.384,3.384,0,0,0-3.085,2l-1.647,3.645a1.562,1.562,0,0,0-.132.626,1.555,1.555,0,0,0,1.537,1.537V88.818l.154-.154-.154-.066v.22l.154-.154-.154.154h.219l-.066-.154-.154.154h0l.2.088.022-.088h-.219l.2.088L64.7,85.261a1.629,1.629,0,0,1,1.482-.955H68.8a1.173,1.173,0,0,1,.845.351,1.233,1.233,0,0,1,.34.823,1.146,1.146,0,0,1-.154.571l-.714,1.3a2.416,2.416,0,0,1-2.13,1.251H62.846v.878Z" fill="#4529c7"/>
      <path id="Trazado_872617" data-name="Trazado 872617" d="M70.63,57.255v-.878H65.481A.979.979,0,0,1,64.5,55.4V19.095a2.333,2.333,0,0,1,2.338-2.338h46.471a1.007,1.007,0,0,1,1.01,1.01V53.885a2.479,2.479,0,0,1-2.481,2.481H85.648a4.747,4.747,0,0,0-3.809,1.921L74.659,68a.516.516,0,0,1-.417.22.563.563,0,0,1-.373-.143.48.48,0,0,1-.165-.373l-.384-8.772a2.7,2.7,0,0,0-2.69-2.58v1.778a.943.943,0,0,1,.944.9l.384,8.761a2.251,2.251,0,0,0,.758,1.6,2.293,2.293,0,0,0,1.537.582,2.233,2.233,0,0,0,1.822-.933l7.18-9.716a2.979,2.979,0,0,1,2.393-1.208h26.194a4.241,4.241,0,0,0,4.238-4.238V17.767A2.769,2.769,0,0,0,113.313,15H66.842a4.1,4.1,0,0,0-4.095,4.095V55.4a2.734,2.734,0,0,0,2.734,2.734H70.63Z" fill="#4529c7"/>
    </g>
    <g id="proteger" transform="translate(1250.356 3000.75)">
      <path id="Trazado_873017" data-name="Trazado 873017" d="M-7085.312-8703.271l-10.917,5.3s1.371,19.153,10.917,20.2,12.48-20.2,12.48-20.2Z" transform="translate(7127.955 8709.014)" fill="#99edf2"/>
      <g id="Grupo_1098845" data-name="Grupo 1098845" transform="translate(25.999 0)">
        <g id="Grupo_1098844" data-name="Grupo 1098844" transform="translate(0 0)">
          <path id="Trazado_873011" data-name="Trazado 873011" d="M58.72,6.408A67.445,67.445,0,0,1,42.983.091a.723.723,0,0,0-.705,0A65.6,65.6,0,0,1,26.541,6.408a.723.723,0,0,0-.542.7V15.09a22.373,22.373,0,0,0,7.352,16.751c3.6,3.336,7.77,5.181,9.279,5.181s5.681-1.845,9.279-5.181A22.374,22.374,0,0,0,59.262,15.09V7.108A.723.723,0,0,0,58.72,6.408ZM50.926,30.78a23.594,23.594,0,0,1-5.2,3.667,9.322,9.322,0,0,1-3.093,1.128,9.321,9.321,0,0,1-3.093-1.128,23.6,23.6,0,0,1-5.2-3.667,20.959,20.959,0,0,1-6.889-15.69V7.665A66.928,66.928,0,0,0,42.63,1.55,69.029,69.029,0,0,0,57.815,7.665V15.09h0A20.96,20.96,0,0,1,50.926,30.78Z" transform="translate(-25.999 0)" fill="#4529c7"/>
        </g>
      </g>
      <g id="Grupo_1098847" data-name="Grupo 1098847" transform="translate(28.53 2.882)">
        <g id="Grupo_1098846" data-name="Grupo 1098846" transform="translate(0)">
          <path id="Trazado_873012" data-name="Trazado 873012" d="M88.678,45.321a69.732,69.732,0,0,1-13.239-5.375.723.723,0,0,0-.679,0A68.9,68.9,0,0,1,61.52,45.322a.723.723,0,0,0-.522.695v6.052a20.1,20.1,0,0,0,1.591,7.97,20.324,20.324,0,0,0,4.657,6.648,22.815,22.815,0,0,0,4.871,3.573,13.086,13.086,0,0,0,2.849,1.187.723.723,0,0,0,.262,0,13.086,13.086,0,0,0,2.849-1.187,22.825,22.825,0,0,0,4.871-3.573,20.323,20.323,0,0,0,4.657-6.648,20.1,20.1,0,0,0,1.591-7.97V46.015A.723.723,0,0,0,88.678,45.321Zm-.925,6.748a18.2,18.2,0,0,1-5.8,13.575,21.356,21.356,0,0,1-4.558,3.344A12.839,12.839,0,0,1,75.1,70a12.836,12.836,0,0,1-2.292-1.008,21.356,21.356,0,0,1-4.558-3.344,18.2,18.2,0,0,1-5.8-13.575V46.558A70.365,70.365,0,0,0,75.1,41.4a71.208,71.208,0,0,0,12.653,5.154v5.513Z" transform="translate(-60.998 -39.861)" fill="#4529c7"/>
        </g>
      </g>
      <g id="Grupo_1098849" data-name="Grupo 1098849" transform="translate(35.359 25.658)">
        <g id="Grupo_1098848" data-name="Grupo 1098848">
          <path id="Trazado_873013" data-name="Trazado 873013" d="M156.715,355.085l-.014-.016a.723.723,0,0,0-1.071.971l.014.016a.723.723,0,0,0,1.071-.971Z" transform="translate(-155.443 -354.833)" fill="#4529c7"/>
        </g>
      </g>
      <g id="Grupo_1098851" data-name="Grupo 1098851" transform="translate(36.833 27.123)">
        <g id="Grupo_1098850" data-name="Grupo 1098850" transform="translate(0)">
          <path id="Trazado_873014" data-name="Trazado 873014" d="M179.524,377.173a18.842,18.842,0,0,1-2.493-1.883.723.723,0,1,0-.964,1.078,20.285,20.285,0,0,0,2.685,2.028.723.723,0,1,0,.772-1.223Z" transform="translate(-175.826 -375.106)" fill="#4529c7"/>
        </g>
      </g>
      <g id="Grupo_1098853" data-name="Grupo 1098853" transform="translate(37.254 8.912)">
        <g id="Grupo_1098852" data-name="Grupo 1098852" transform="translate(0)">
          <path id="Trazado_873015" data-name="Trazado 873015" d="M190.854,129.464v-2.381a3.825,3.825,0,0,0-7.65,0v2.381a1.611,1.611,0,0,0-1.551,1.608v5.551a1.611,1.611,0,0,0,1.609,1.609H190.8a1.611,1.611,0,0,0,1.609-1.609v-5.551A1.611,1.611,0,0,0,190.854,129.464Zm-6.2-2.381a2.379,2.379,0,0,1,4.758,0v2.379H184.65v-2.379Zm6.309,9.54a.165.165,0,0,1-.163.163h-7.533a.165.165,0,0,1-.163-.163v-5.551h0a.165.165,0,0,1,.163-.163H190.8a.165.165,0,0,1,.163.163Z" transform="translate(-181.653 -123.258)" fill="#4529c7"/>
        </g>
      </g>
      <g id="Grupo_1098855" data-name="Grupo 1098855" transform="translate(41.619 18.051)">
        <g id="Grupo_1098854" data-name="Grupo 1098854">
          <path id="Trazado_873016" data-name="Trazado 873016" d="M243.029,249.64a1.01,1.01,0,0,0-.723,1.716v.708a.723.723,0,0,0,1.446,0v-.708a1.01,1.01,0,0,0-.723-1.716Z" transform="translate(-242.018 -249.64)" fill="#4529c7"/>
        </g>
      </g>
    </g>
  </g>
</svg>
