<svg xmlns="http://www.w3.org/2000/svg" width="70" height="70" viewBox="0 0 70 70">
  <g id="Grupo_1098861" data-name="Grupo 1098861" transform="translate(-430 -539)">
    <g id="Grupo_1098860" data-name="Grupo 1098860" transform="translate(-1 -2.994)">
      <path id="objetivo" d="M57.28,8.625,54.538,6.211,57.28,3.8a1.353,1.353,0,0,0-.894-2.369H45.039V.94a.94.94,0,0,0-1.881,0V13.623l-7.723,4.194a2.975,2.975,0,0,0-.305-.988L34.042,14.7a2.975,2.975,0,0,0-4-1.29l-.841.431a2.971,2.971,0,0,0-1.29,4L29,19.969a2.953,2.953,0,0,0,1.071,1.164,8.238,8.238,0,0,0-1.134,2.728l-.2.718a.94.94,0,0,0,.649,1.161.926.926,0,0,0,.256.036.941.941,0,0,0,.9-.685l.2-.716c.412-1.453.665-2.232,1.471-2.669l1.445-.785.178-.091c.059-.03.115-.065.171-.1l10.3-5.591a3.98,3.98,0,0,1-1.9,3.2l-6.7,4.068-.023.014-2.084,1.266a.94.94,0,0,0,.9,1.65l-1.581,4.78-1.156.474-3.143,1.288.906-3.2a.941.941,0,1,0-1.81-.512L26.29,33.22a.9.9,0,0,0-.034.2L25.881,40.3a3.147,3.147,0,0,1-.077,1.014l-4.159,8.75H18.623a3.214,3.214,0,0,0-3.211,3.21v2.714a3.185,3.185,0,0,0-1.33-.289H6.408a3.214,3.214,0,0,0-3.21,3.21V62.28H.94a.94.94,0,1,0,0,1.881H56.384a.94.94,0,1,0,0-1.881H53.939V38.042a3.214,3.214,0,0,0-3.21-3.21H45.039v-16.4a5.864,5.864,0,0,0,.945-5.026.941.941,0,0,0-.945-.69V10.994H56.385a1.354,1.354,0,0,0,.895-2.369Zm-27.762,7.53a1.083,1.083,0,0,1,.541-.636l.841-.431a1.091,1.091,0,0,1,1.468.473l1.089,2.125a1.093,1.093,0,0,1-.362,1.4l-.306.166-.647.331a1.092,1.092,0,0,1-1.468-.474l-1.089-2.124A1.084,1.084,0,0,1,29.517,16.155Zm-1.89,34.2a3.192,3.192,0,0,0-1.032-.275l1.032-1.371Zm4.465-7.577a3.544,3.544,0,0,0,.678-1.685c.025-.121.49-2.656.49-2.656s.439.274.485.293a.1.1,0,0,1,.058.082l.512,5.2H31.163Zm5.561-5.19-.794,6.42H36.2l-.529-5.38a1.981,1.981,0,0,0-1.108-1.59l-.946-.6.63-3.492s2.654,3.153,2.716,3.233C37.517,36.9,37.7,37.182,37.654,37.589ZM27.5,42.14a5.1,5.1,0,0,0,.263-1.746l.342-6.274,4.349-1.782-.791,4.379c0,.012,0,.024-.006.036L31,40.374a3.582,3.582,0,0,1-.394,1.253l-6.354,8.44h-.524ZM5.079,58.912a1.331,1.331,0,0,1,1.33-1.329h7.675a1.331,1.331,0,0,1,1.33,1.329V62.28H5.079Zm12.215,0V53.277a1.331,1.331,0,0,1,1.33-1.33H26.3a1.331,1.331,0,0,1,1.33,1.33v9H17.294V58.912Zm34.765-20.87V62.28H41.724V56.642a.941.941,0,0,0-1.881,0V62.28H29.509V47.224a1.331,1.331,0,0,1,1.33-1.329h7.675a1.331,1.331,0,0,1,1.33,1.329v4.714a.94.94,0,0,0,1.881,0v-13.9a1.331,1.331,0,0,1,1.33-1.33h7.675A1.332,1.332,0,0,1,52.058,38.042Zm-9-3.21a3.214,3.214,0,0,0-3.21,3.21V44.3a3.183,3.183,0,0,0-1.09-.28l.767-6.2a3.632,3.632,0,0,0-1.062-2.786c-.063-.082-3.718-4.422-3.718-4.422l2.242-6.78,6.177-3.753V34.832ZM45.039,9.113v-5.8h9.948L52.845,5.2a1.353,1.353,0,0,0,0,2.031l2.143,1.887H45.039Zm0,0" transform="translate(437 544.994)" fill="#4529c7"/>
      <rect id="Rectángulo_400966" data-name="Rectángulo 400966" width="8" height="23" rx="1" transform="translate(480 583)" fill="#99edf2"/>
      <rect id="Rectángulo_400967" data-name="Rectángulo 400967" width="8" height="14" rx="1" transform="translate(468 593)" fill="#99edf2"/>
      <rect id="Rectángulo_400968" data-name="Rectángulo 400968" width="9" height="9" rx="1" transform="translate(455 598)" fill="#99edf2"/>
      <path id="Trazado_873018" data-name="Trazado 873018" d="M-2764.19-11151.114v4.2h7.527l-2.124-2.124,2.124-2.123Z" transform="translate(3247 11700)" fill="#99edf2"/>
    </g>
    <rect id="Rectángulo_400970" data-name="Rectángulo 400970" width="70" height="70" transform="translate(430 539)" fill="none"/>
  </g>
</svg>
