<svg xmlns="http://www.w3.org/2000/svg" width="70" height="70" viewBox="0 0 70 70">
  <g id="Grupo_1098862" data-name="Grupo 1098862" transform="translate(-430 -539)">
    <rect id="Rectángulo_400970" data-name="Rectángulo 400970" width="70" height="70" transform="translate(430 539)" fill="none"/>
    <g id="analitica-" transform="translate(435 544)">
      <path id="Trazado_873020" data-name="Trazado 873020" d="M58.639,10H14.3c-2.377,0-4.3,1.129-4.3,2.521v2.016H62.944V12.521C62.944,11.129,61.017,10,58.639,10Z" transform="translate(-6.745 -6.57)" fill="#99edf2"/>
      <path id="Trazado_873021" data-name="Trazado 873021" d="M21,82H76.249" transform="translate(-18.561 -72.463)" fill="#4529c7"/>
      <rect id="Rectángulo_400971" data-name="Rectángulo 400971" width="7.011" height="12.269" transform="translate(7.011 45.569)" fill="#99edf2"/>
      <rect id="Rectángulo_400972" data-name="Rectángulo 400972" width="7.011" height="15.774" transform="translate(33.3 42.064)" fill="#99edf2"/>
      <rect id="Rectángulo_400973" data-name="Rectángulo 400973" width="7.444" height="25.654" transform="translate(19.54 32.732)" fill="#99edf2"/>
      <rect id="Rectángulo_400974" data-name="Rectángulo 400974" width="7.444" height="27.39" transform="translate(45.592 30.996)" fill="#99edf2"/>
      <circle id="Elipse_11442" data-name="Elipse 11442" cx="3.024" cy="3.024" r="3.024" transform="translate(19.583 16.974)" fill="#99edf2"/>
      <circle id="Elipse_11443" data-name="Elipse 11443" cx="3.024" cy="3.024" r="3.024" transform="translate(33.156 30.821)" fill="#99edf2"/>
      <circle id="Elipse_11444" data-name="Elipse 11444" cx="3.024" cy="3.024" r="3.024" transform="translate(46.29 16.974)" fill="#99edf2"/>
      <circle id="Elipse_11445" data-name="Elipse 11445" cx="3.024" cy="3.024" r="3.024" transform="translate(7.134 29.708)" fill="#99edf2"/>
      <path id="Trazado_873022" data-name="Trazado 873022" d="M55.488,51.233a4.066,4.066,0,0,0,4.061-4.061V5.815A5.822,5.822,0,0,0,53.734,0H5.815A5.822,5.822,0,0,0,0,5.815V47.172a4.066,4.066,0,0,0,4.061,4.061H5.35v5.99H1.163a1.163,1.163,0,0,0,0,2.326H58.386a1.163,1.163,0,0,0,0-2.326H54.2v-5.99ZM5.815,2.326H53.734a3.493,3.493,0,0,1,3.489,3.489V8.374H2.443c-.039,0-.078,0-.117.006V5.815A3.493,3.493,0,0,1,5.815,2.326Zm1.861,54.9V46.755h5.117V57.223Zm13.026,0V33.9H25.82V57.223Zm13.026,0V43.731h5.118V57.223Zm13.026,0V44.691a1.163,1.163,0,0,0-2.326,0V57.223H41.173V42.568a1.163,1.163,0,0,0-1.163-1.163H32.566A1.163,1.163,0,0,0,31.4,42.568V57.223H28.146V32.732a1.163,1.163,0,0,0-1.163-1.163H19.54a1.163,1.163,0,0,0-1.163,1.163v24.49H15.12V45.592a1.163,1.163,0,0,0-1.163-1.163H6.513A1.163,1.163,0,0,0,5.35,45.592v3.315H4.061a1.737,1.737,0,0,1-1.735-1.735V10.694c.038,0,.077.006.117.006h54.78V47.172a1.737,1.737,0,0,1-1.735,1.735H54.2V31a1.163,1.163,0,0,0-1.163-1.163H45.592A1.163,1.163,0,0,0,44.429,31v5.873a1.163,1.163,0,0,0,2.326,0v-4.71h5.118V57.223Z" fill="#4529c7"/>
      <path id="Trazado_873023" data-name="Trazado 873023" d="M213.228,38.326h26.278a1.163,1.163,0,1,0,0-2.326H213.228a1.163,1.163,0,1,0,0,2.326Z" transform="translate(-187.4 -31.813)" fill="#4529c7"/>
      <path id="Trazado_873024" data-name="Trazado 873024" d="M95.163,38.326a1.164,1.164,0,1,0-.822-.341A1.171,1.171,0,0,0,95.163,38.326Z" transform="translate(-83.067 -31.813)" fill="#4529c7"/>
      <path id="Trazado_873025" data-name="Trazado 873025" d="M55.163,38.326a1.164,1.164,0,1,0-.822-.341A1.172,1.172,0,0,0,55.163,38.326Z" transform="translate(-47.719 -31.813)" fill="#4529c7"/>
      <path id="Trazado_873026" data-name="Trazado 873026" d="M135.163,38.326a1.164,1.164,0,1,0-.822-.341A1.171,1.171,0,0,0,135.163,38.326Z" transform="translate(-118.415 -31.813)" fill="#4529c7"/>
      <path id="Trazado_873027" data-name="Trazado 873027" d="M383.163,342.64a1.163,1.163,0,1,0,.822.341A1.167,1.167,0,0,0,383.163,342.64Z" transform="translate(-337.571 -302.789)" fill="#4529c7"/>
      <path id="Trazado_873028" data-name="Trazado 873028" d="M94.679,144.313a4.193,4.193,0,1,0-3.388-1.731l-7.726,7.726a4.177,4.177,0,0,0-3.861-.094l-8.067-8.067a4.187,4.187,0,1,0-7.226.18l-6.868,6.868a4.19,4.19,0,1,0,1.645,1.645l6.95-6.95a4.177,4.177,0,0,0,3.854-.1l7.988,7.988a4.187,4.187,0,1,0,7.23.173l7.933-7.933A4.16,4.16,0,0,0,94.679,144.313Zm0-6.048a1.861,1.861,0,1,1-1.861,1.861A1.863,1.863,0,0,1,94.679,138.265ZM55.523,154.722a1.861,1.861,0,1,1,1.861-1.861A1.863,1.863,0,0,1,55.523,154.722Zm12.449-12.735a1.861,1.861,0,1,1,1.861-1.861A1.863,1.863,0,0,1,67.972,141.987Zm13.573,13.847a1.861,1.861,0,1,1,1.861-1.861A1.863,1.863,0,0,1,81.545,155.834Z" transform="translate(-45.365 -120.128)" fill="#4529c7"/>
      <path id="Trazado_873029" data-name="Trazado 873029" d="M132.423,128.346a1.161,1.161,0,1,0-.823-.341A1.174,1.174,0,0,0,132.423,128.346Z" transform="translate(-115.994 -111.363)" fill="#4529c7"/>
      <path id="Trazado_873030" data-name="Trazado 873030" d="M47.163,128.347h5.583a1.163,1.163,0,0,0,0-2.326H47.163a1.163,1.163,0,0,0,0,2.326Z" transform="translate(-40.65 -111.364)" fill="#4529c7"/>
      <path id="Trazado_873031" data-name="Trazado 873031" d="M52.746,176.347a1.163,1.163,0,1,0,0-2.326H47.163a1.163,1.163,0,1,0,0,2.326Z" transform="translate(-40.65 -153.781)" fill="#4529c7"/>
    </g>
  </g>
</svg>
