<svg xmlns="http://www.w3.org/2000/svg" width="78" height="78" viewBox="0 0 78 78">
  <g id="Grupo_1098669" data-name="Grupo 1098669" transform="translate(-209.903 -20045.903)">
    <g id="Grupo_1095345" data-name="Grupo 1095345" transform="translate(210 20046)">
      <circle id="Elipse_9665" data-name="Elipse 9665" cx="39" cy="39" r="39" transform="translate(-0.097 -0.097)" fill="#f0c518"/>
    </g>
    <g id="analisis-de-los-datos_1_" data-name="analisis-de-los-datos (1)" transform="translate(222.222 20063.25)">
      <g id="Grupo_1098202" data-name="Grupo 1098202" transform="translate(0.848 0.861)">
        <g id="Grupo_1098198" data-name="Grupo 1098198" transform="translate(0 0)">
          <path id="Trazado_849157" data-name="Trazado 849157" d="M180.442,351.725h16.23v9.245h-16.23Z" transform="translate(-162.737 -317.942)" fill="#9facba" fill-rule="evenodd"/>
          <path id="Trazado_849158" data-name="Trazado 849158" d="M319.6,351.725h1.259v9.245H319.6Z" transform="translate(-286.923 -317.942)" fill="#685e68" fill-rule="evenodd"/>
          <path id="Trazado_849159" data-name="Trazado 849159" d="M92.806,429.413h35.087v-2.705c0-1.488-1.523-2.7-3.386-2.7H96.192c-1.862,0-3.386,1.217-3.386,2.7Z" transform="translate(-84.529 -382.444)" fill="#7a8c98" fill-rule="evenodd"/>
          <path id="Trazado_849160" data-name="Trazado 849160" d="M92.806,433.874h35.087v-2.705A2.577,2.577,0,0,0,126.527,429a2.233,2.233,0,0,1,.29,1.091V432.8H92.806Z" transform="translate(-84.529 -386.905)" fill="#d1d1d6" fill-rule="evenodd"/>
          <path id="Trazado_849161" data-name="Trazado 849161" d="M19.841,37.717h43.7a3.982,3.982,0,0,1,3.97,3.97V69a3.982,3.982,0,0,1-3.97,3.97h-43.7A3.982,3.982,0,0,1,15.871,69V41.687A3.982,3.982,0,0,1,19.841,37.717Z" transform="translate(-15.871 -37.717)" fill="#4360ea" fill-rule="evenodd"/>
          <path id="Trazado_849162" data-name="Trazado 849162" d="M71.394,44.034a3.974,3.974,0,0,1,1.755,3.29V74.636a3.982,3.982,0,0,1-3.97,3.97h-43.7a3.974,3.974,0,0,1-3.29-1.755,3.941,3.941,0,0,0,2.214.68H68.1a3.982,3.982,0,0,0,3.97-3.97V46.248a3.941,3.941,0,0,0-.68-2.214Z" transform="translate(-21.508 -43.354)" fill="#1331bd" fill-rule="evenodd"/>
          <path id="Trazado_849163" data-name="Trazado 849163" d="M47.279,68.574h43.9a.552.552,0,0,1,.551.551V93.847h-45V69.125A.552.552,0,0,1,47.279,68.574Z" transform="translate(-43.408 -65.254)" fill="#fff0ad" fill-rule="evenodd"/>
          <path id="Trazado_849164" data-name="Trazado 849164" d="M439.895,68.574h2.152a.552.552,0,0,1,.551.551V93.847h-2.152V69.124A.552.552,0,0,0,439.895,68.574Z" transform="translate(-394.276 -65.254)" fill="#c4e2ff" fill-rule="evenodd"/>
        </g>
        <g id="Grupo_1098199" data-name="Grupo 1098199" transform="translate(5.996 5.681)">
          <path id="Trazado_849165" data-name="Trazado 849165" d="M82.384,108.982a5.426,5.426,0,1,1-6.252-6.252.323.323,0,0,1,.376.318v5.033a.525.525,0,0,0,.525.525h5.033a.323.323,0,0,1,.318.376Z" transform="translate(-71.607 -101.412)" fill="#3ee2a8" fill-rule="evenodd"/>
          <path id="Trazado_849166" data-name="Trazado 849166" d="M77.57,113.479c-.177.017-.356.027-.537.027a5.426,5.426,0,0,1-.9-10.777.313.313,0,0,1,.262.072.322.322,0,0,1,.082.1,5.426,5.426,0,0,0,1.095,10.574Z" transform="translate(-71.607 -101.411)" fill="#00e499" fill-rule="evenodd"/>
          <path id="Trazado_849167" data-name="Trazado 849167" d="M139.5,90.524a5.43,5.43,0,0,1,4.45,4.45.323.323,0,0,1-.318.376h-4.185a.323.323,0,0,1-.323-.323V90.843a.323.323,0,0,1,.376-.318Z" transform="translate(-131.862 -90.519)" fill="#ffe177" fill-rule="evenodd"/>
          <path id="Trazado_849168" data-name="Trazado 849168" d="M139.769,90.524a5.43,5.43,0,0,1,4.45,4.45.323.323,0,0,1-.318.376h-1.076a.323.323,0,0,0,.318-.376,5.433,5.433,0,0,0-3.718-4.274.321.321,0,0,1,.082-.1A.313.313,0,0,1,139.769,90.524Z" transform="translate(-132.129 -90.519)" fill="#ffd064" fill-rule="evenodd"/>
        </g>
        <g id="Grupo_1098200" data-name="Grupo 1098200" transform="translate(18.739 10.488)">
          <path id="Trazado_849169" data-name="Trazado 849169" d="M373.416,135.206h2.455a.539.539,0,0,1,.538.538v14.827a.539.539,0,0,1-.538.538h-2.455a.539.539,0,0,1-.538-.538V135.744A.539.539,0,0,1,373.416,135.206Z" transform="translate(-353.208 -135.206)" fill="#1682fb" fill-rule="evenodd"/>
          <path id="Trazado_849170" data-name="Trazado 849170" d="M390.7,135.206h1.076a.539.539,0,0,1,.538.538v14.827a.539.539,0,0,1-.538.538H390.7a.539.539,0,0,0,.538-.538V135.744A.539.539,0,0,0,390.7,135.206Z" transform="translate(-369.112 -135.206)" fill="#60b7ff" fill-rule="evenodd"/>
          <path id="Trazado_849171" data-name="Trazado 849171" d="M251.53,178.26h2.455a.539.539,0,0,1,.538.538v10.195a.539.539,0,0,1-.538.538H251.53a.539.539,0,0,1-.538-.538V178.8A.539.539,0,0,1,251.53,178.26Z" transform="translate(-244.435 -173.628)" fill="#1682fb" fill-rule="evenodd"/>
          <path id="Trazado_849172" data-name="Trazado 849172" d="M268.813,178.26h1.076a.539.539,0,0,1,.538.538v10.195a.539.539,0,0,1-.538.538h-1.076a.539.539,0,0,0,.538-.538V178.8A.539.539,0,0,0,268.813,178.26Z" transform="translate(-260.339 -173.628)" fill="#0f6bd2" fill-rule="evenodd"/>
          <path id="Trazado_849173" data-name="Trazado 849173" d="M312.473,200.643h2.455a.539.539,0,0,1,.538.538v7.786a.539.539,0,0,1-.538.538h-2.455a.539.539,0,0,1-.538-.538v-7.786A.539.539,0,0,1,312.473,200.643Z" transform="translate(-298.822 -193.603)" fill="#ffe177" fill-rule="evenodd"/>
          <path id="Trazado_849174" data-name="Trazado 849174" d="M329.773,200.643h1.074a.539.539,0,0,1,.538.538v7.786a.539.539,0,0,1-.538.538h-1.074a.539.539,0,0,0,.536-.538v-7.786A.539.539,0,0,0,329.773,200.643Z" transform="translate(-314.741 -193.603)" fill="#ffd064" fill-rule="evenodd"/>
          <path id="Trazado_849175" data-name="Trazado 849175" d="M190.586,233.633h2.455a.539.539,0,0,1,.538.538v4.237a.539.539,0,0,1-.538.538h-2.455a.539.539,0,0,1-.538-.538v-4.237A.539.539,0,0,1,190.586,233.633Z" transform="translate(-190.048 -223.044)" fill="#ed74b7" fill-rule="evenodd"/>
          <path id="Trazado_849176" data-name="Trazado 849176" d="M207.869,233.633h1.076a.539.539,0,0,1,.538.538v4.237a.539.539,0,0,1-.538.538h-1.076a.539.539,0,0,0,.538-.538v-4.237A.539.539,0,0,0,207.869,233.633Z" transform="translate(-205.952 -223.044)" fill="#fd4755" fill-rule="evenodd"/>
        </g>
        <g id="Grupo_1098201" data-name="Grupo 1098201" transform="translate(25.466 18.313)">
          <path id="Trazado_849177" data-name="Trazado 849177" d="M402.77,351a8.075,8.075,0,0,1-1.362,1.5l3.7,3.631,1.41-1.453Z" transform="translate(-385.396 -335.605)" fill="#a79ba7" fill-rule="evenodd"/>
          <path id="Trazado_849178" data-name="Trazado 849178" d="M410.958,350.764a.931.931,0,0,1-.4.541l3.68,3.656.451-.494Z" transform="translate(-393.559 -335.398)" fill="#837683" fill-rule="evenodd"/>
          <path id="Trazado_849179" data-name="Trazado 849179" d="M432.484,383.149l1.592-1.64a.732.732,0,0,0-.015-1.032l-4.408-4.278a.732.732,0,0,0-1.032.016l-1.591,1.64a.732.732,0,0,0,.016,1.032l4.408,4.278A.732.732,0,0,0,432.484,383.149Z" transform="translate(-408.077 -357.913)" fill="#f1ba84" fill-rule="evenodd"/>
          <path id="Trazado_849180" data-name="Trazado 849180" d="M445.542,376.2l4.408,4.278a.732.732,0,0,1,.016,1.032l-1.592,1.64a.727.727,0,0,1-.2.144.733.733,0,0,0,.85-.144l1.592-1.64a.732.732,0,0,0-.016-1.032l-4.408-4.278a.733.733,0,0,0-.834-.129A.722.722,0,0,1,445.542,376.2Z" transform="translate(-424.62 -357.913)" fill="#e3a76f" fill-rule="evenodd"/>
          <ellipse id="Elipse_11319" data-name="Elipse 11319" cx="8.027" cy="8.027" rx="8.027" ry="8.027" transform="translate(0 11.351) rotate(-45)" fill="#a79ba7"/>
          <path id="Trazado_849181" data-name="Trazado 849181" d="M354.924,238.82a8.027,8.027,0,1,1,0,16.055q-.2,0-.39-.01a8.027,8.027,0,0,0,0-16.036Q354.728,238.82,354.924,238.82Z" transform="translate(-343.565 -235.497)" fill="#837683" fill-rule="evenodd"/>
          <circle id="Elipse_11320" data-name="Elipse 11320" cx="5.749" cy="5.749" r="5.749" transform="translate(3.859 8.232) rotate(-22.514)" fill="#eceff1"/>
          <path id="Trazado_849182" data-name="Trazado 849182" d="M310.465,259.994c.131,0,.26,0,.389.013a5.749,5.749,0,0,0,0,11.472c-.128.009-.258.013-.389.013a5.749,5.749,0,1,1,0-11.5Z" transform="translate(-299.107 -254.393)" fill="#d1d1d6" fill-rule="evenodd"/>
        </g>
      </g>
      <path id="Trazado_849183" data-name="Trazado 849183" d="M45.689,65.137a4.889,4.889,0,1,1,4.892-4.889A4.894,4.894,0,0,1,45.689,65.137Zm0-11.5a6.61,6.61,0,1,0,6.614,6.61,6.615,6.615,0,0,0-6.614-6.61ZM32.715,41.565a.86.86,0,0,1-.861.861H30.624a.861.861,0,1,1,0-1.722h1.231A.86.86,0,0,1,32.715,41.565Zm11.682,0a.859.859,0,0,1-.856.861H34.923a.861.861,0,1,1,0-1.722h8.619A.859.859,0,0,1,44.4,41.565Zm0-3.228a.859.859,0,0,1-.856.861H34.923a.861.861,0,1,1,0-1.721h8.619A.859.859,0,0,1,44.4,38.337Zm-11.682,0a.86.86,0,0,1-.861.861H30.624a.861.861,0,1,1,0-1.721h1.231A.86.86,0,0,1,32.715,38.337Zm-9.738-1.074a4.564,4.564,0,0,1,2.962,2.965H22.977Zm-.861,4.686h4.877a.868.868,0,0,0,.638-.282.854.854,0,0,0,.218-.661,6.292,6.292,0,0,0-5.651-5.65.863.863,0,0,0-.942.857v4.876a.86.86,0,0,0,.861.86Zm-1.838,5.543a4.548,4.548,0,0,0,4.355-3.179H20.278a1.389,1.389,0,0,1-1.388-1.386V38.574a4.568,4.568,0,0,0,1.388,8.918Zm5.4-4.9H20.612V37.527a.855.855,0,0,0-.942-.856,6.286,6.286,0,1,0,6.867,6.864.878.878,0,0,0-.223-.661.857.857,0,0,0-.633-.282Zm4.583,13.516H28.456V52.516h1.808Zm.861-5.313H27.6a.86.86,0,0,0-.861.86v5.314a.86.86,0,0,0,.861.86h3.53a.86.86,0,0,0,.861-.86V51.655A.86.86,0,0,0,31.125,50.795Zm28.51,11.064V34.547a3.111,3.111,0,0,0-3.109-3.109h-43.7a3.114,3.114,0,0,0-3.109,3.109V61.859a3.114,3.114,0,0,0,3.109,3.109H38.189a8.793,8.793,0,0,1-1.367-4.72c0-.083.005-.164.005-.246H12.176a.86.86,0,0,1-.861-.861V34.448a1.413,1.413,0,0,1,1.413-1.411h43.9a1.413,1.413,0,0,1,1.413,1.411V59.141a.86.86,0,0,1-.861.861H54.55c0,.082.005.164.005.246a8.823,8.823,0,0,1-1.205,4.459l.268.261h2.907a3.111,3.111,0,0,0,3.109-3.109ZM58.182,73.4l-4.208-4.082,1.4-1.445,4.208,4.082ZM38.544,60.248A7.145,7.145,0,1,0,45.689,53.1,7.154,7.154,0,0,0,38.544,60.248Zm-1.722-13.69v9.549H35.014V46.559Zm6.558,5.13a8.749,8.749,0,0,0-1.808.711V48.966H43.38Zm6.558.777a8.881,8.881,0,0,0-1.813-.741v-9.8h1.813Zm1.717,1.229a8.816,8.816,0,0,1,2.679,4.586h1.985V34.758H13.037V58.281H37.045c.035-.152.071-.3.116-.452H34.153a.861.861,0,0,1-.861-.861V45.7a.861.861,0,0,1,.861-.861h3.53a.861.861,0,0,1,.861.861v9.309a8.977,8.977,0,0,1,1.307-1.421V48.106a.86.86,0,0,1,.861-.861h3.53a.86.86,0,0,1,.861.861v3.3c.192-.013.39-.022.587-.022.243,0,.481.012.714.031V41.066a.861.861,0,0,1,.861-.861H50.8a.86.86,0,0,1,.856.861V53.695Zm.679,12.422,1.21,1.177-.208.214L52.13,66.336C52.2,66.264,52.267,66.191,52.333,66.116Zm-10.4,5.159H27.423V66.689H39.6a8.9,8.9,0,0,0,2.329,1.588Zm9.429,3.566v1.844H17.994V74.841c0-1,1.155-1.844,2.522-1.844H48.834C50.2,73,51.36,73.841,51.36,74.841Zm10-12.982V34.547a4.836,4.836,0,0,0-4.831-4.83h-43.7a4.836,4.836,0,0,0-4.831,4.83V61.859a4.836,4.836,0,0,0,4.831,4.83H25.7v4.586H20.516c-2.34,0-4.244,1.6-4.244,3.565v2.705a.86.86,0,0,0,.861.86H52.221a.86.86,0,0,0,.861-.86V74.841c0-1.966-1.9-3.565-4.249-3.565h-5.18v-2.4a8.82,8.82,0,0,0,7.17-1.407l1.443,1.4a1.53,1.53,0,0,0-.071.481,1.593,1.593,0,0,0,.481,1.116l4.4,4.267a1.587,1.587,0,0,0,2.243-.034l1.59-1.636a1.593,1.593,0,0,0-.035-2.246l-4.254-4.128a4.835,4.835,0,0,0,4.735-4.828Z" transform="translate(-7.993 -29.717)" fill="#242222" fill-rule="evenodd"/>
    </g>
  </g>
</svg>
