<svg xmlns="http://www.w3.org/2000/svg" width="190" height="165" viewBox="0 0 190 165">
  <g id="Grupo_1098837" data-name="Grupo 1098837" transform="translate(-180 -651)">
    <rect id="Rect치ngulo_400902" data-name="Rect치ngulo 400902" width="190" height="37" rx="11" transform="translate(180 755)" fill="#0b47db"/>
    <rect id="Rect치ngulo_400903" data-name="Rect치ngulo 400903" width="144" height="147" rx="11" transform="translate(203 659)" fill="#beb4d0"/>
    <g id="computacion-en-la-nube" transform="translate(135.799 651.001)">
      <g id="Grupo_1098807" data-name="Grupo 1098807" transform="translate(94.351 2.446)">
        <g id="Grupo_1098806" data-name="Grupo 1098806">
          <path id="Trazado_872943" data-name="Trazado 872943" d="M127.992,59.98h64.548a12.5,12.5,0,0,0,12.566-11.936q.008-.248.008-.5a14.273,14.273,0,0,0-14.273-14.273h-.016c.009-.211.016-.422.016-.635a14.277,14.277,0,0,0-21.058-12.56,21.731,21.731,0,0,0-41.052,13.231,14.271,14.271,0,0,0-13.315,14.238q0,.25.008.5A12.5,12.5,0,0,0,127.992,59.98Z" transform="translate(-115.416 -7.501)" fill="#ddebfd"/>
        </g>
      </g>
      <g id="Grupo_1098809" data-name="Grupo 1098809" transform="translate(111.439 2.446)">
        <g id="Grupo_1098808" data-name="Grupo 1098808" transform="translate(0)">
          <path id="Trazado_872944" data-name="Trazado 872944" d="M226.136,33.273h-.016c.009-.211.016-.422.016-.635a14.277,14.277,0,0,0-21.057-12.56,21.69,21.69,0,0,0-37.28-3.567,21.637,21.637,0,0,1,28.674,4.7,7.79,7.79,0,0,0,7.3,2.867,14.37,14.37,0,0,1,2.222-.172c9.391,0,12.614,5.875,13.714,10.249a7.629,7.629,0,0,0,5.044,5.378,14.279,14.279,0,0,1,9.789,13.554q0,.25-.008.5a12.084,12.084,0,0,1-1.385,5.228A12.363,12.363,0,0,0,240.4,48.044q.008-.248.008-.5a14.273,14.273,0,0,0-14.273-14.273Z" transform="translate(-167.799 -7.501)" fill="#bed9fd"/>
        </g>
      </g>
      <g id="Grupo_1098811" data-name="Grupo 1098811" transform="translate(102.481 122.432)">
        <g id="Grupo_1098810" data-name="Grupo 1098810">
          <path id="Trazado_872945" data-name="Trazado 872945" d="M140.336,375.315h72.526v10.333H140.336Z" transform="translate(-140.336 -375.315)" fill="#62a4fb"/>
        </g>
      </g>
      <g id="Grupo_1098813" data-name="Grupo 1098813" transform="translate(86.6 132.765)">
        <g id="Grupo_1098812" data-name="Grupo 1098812" transform="translate(0)">
          <path id="Trazado_872946" data-name="Trazado 872946" d="M193.378,436.778H95.131a3.478,3.478,0,0,1-3.478-3.478V410.469a3.478,3.478,0,0,1,3.478-3.478h98.247a3.478,3.478,0,0,1,3.478,3.478V433.3A3.478,3.478,0,0,1,193.378,436.778Z" transform="translate(-91.653 -406.991)" fill="#bed9fd"/>
        </g>
      </g>
      <g id="Grupo_1098815" data-name="Grupo 1098815" transform="translate(137.134 142.569)">
        <g id="Grupo_1098814" data-name="Grupo 1098814" transform="translate(0)">
          <path id="Trazado_872947" data-name="Trazado 872947" d="M290.689,447.545H248.6a2.032,2.032,0,0,1-2.032-2.032v-6.438a2.032,2.032,0,0,1,2.032-2.032h42.093a2.032,2.032,0,0,1,2.032,2.032v6.438A2.032,2.032,0,0,1,290.689,447.545Z" transform="translate(-246.564 -437.043)" fill="#80b6fc"/>
        </g>
      </g>
      <g id="Grupo_1098817" data-name="Grupo 1098817" transform="translate(86.6 92.645)">
        <g id="Grupo_1098816" data-name="Grupo 1098816" transform="translate(0)">
          <path id="Trazado_872948" data-name="Trazado 872948" d="M193.378,313.791H95.131a3.478,3.478,0,0,1-3.478-3.478V287.482A3.478,3.478,0,0,1,95.131,284h98.247a3.478,3.478,0,0,1,3.478,3.478v22.831A3.478,3.478,0,0,1,193.378,313.791Z" transform="translate(-91.653 -284.004)" fill="#bed9fd"/>
        </g>
      </g>
      <g id="Grupo_1098819" data-name="Grupo 1098819" transform="translate(137.134 102.449)">
        <g id="Grupo_1098818" data-name="Grupo 1098818" transform="translate(0)">
          <path id="Trazado_872949" data-name="Trazado 872949" d="M290.689,324.559H248.6a2.032,2.032,0,0,1-2.032-2.032v-6.438a2.032,2.032,0,0,1,2.032-2.032h42.093a2.032,2.032,0,0,1,2.032,2.032v6.438A2.032,2.032,0,0,1,290.689,324.559Z" transform="translate(-246.564 -314.057)" fill="#80b6fc"/>
        </g>
      </g>
      <g id="Grupo_1098821" data-name="Grupo 1098821" transform="translate(165.22 122.432)">
        <g id="Grupo_1098820" data-name="Grupo 1098820">
          <path id="Trazado_872950" data-name="Trazado 872950" d="M332.662,375.315h9.786v10.333h-9.786Z" transform="translate(-332.662 -375.315)" fill="#5392f9"/>
        </g>
      </g>
      <g id="Grupo_1098823" data-name="Grupo 1098823" transform="translate(178.538 132.766)">
        <g id="Grupo_1098822" data-name="Grupo 1098822">
          <path id="Trazado_872951" data-name="Trazado 872951" d="M383.274,406.992h-9.786a3.478,3.478,0,0,1,3.478,3.478V433.3a3.478,3.478,0,0,1-3.478,3.478h9.786a3.478,3.478,0,0,0,3.478-3.478V410.47A3.478,3.478,0,0,0,383.274,406.992Z" transform="translate(-373.488 -406.992)" fill="#97c3fc"/>
        </g>
      </g>
      <g id="Grupo_1098825" data-name="Grupo 1098825" transform="translate(171.472 142.569)">
        <g id="Grupo_1098824" data-name="Grupo 1098824" transform="translate(0)">
          <path id="Trazado_872952" data-name="Trazado 872952" d="M361.614,437.044h-9.786a2.032,2.032,0,0,1,2.032,2.032v6.438a2.032,2.032,0,0,1-2.032,2.032h9.786a2.032,2.032,0,0,0,2.032-2.032v-6.438A2.032,2.032,0,0,0,361.614,437.044Z" transform="translate(-351.828 -437.044)" fill="#62a4fb"/>
        </g>
      </g>
      <g id="Grupo_1098827" data-name="Grupo 1098827" transform="translate(178.538 92.646)">
        <g id="Grupo_1098826" data-name="Grupo 1098826">
          <path id="Trazado_872953" data-name="Trazado 872953" d="M383.274,284.005h-9.786a3.478,3.478,0,0,1,3.478,3.478v22.831a3.478,3.478,0,0,1-3.478,3.478h9.786a3.478,3.478,0,0,0,3.478-3.478V287.483A3.478,3.478,0,0,0,383.274,284.005Z" transform="translate(-373.488 -284.005)" fill="#97c3fc"/>
        </g>
      </g>
      <g id="Grupo_1098829" data-name="Grupo 1098829" transform="translate(171.472 102.449)">
        <g id="Grupo_1098828" data-name="Grupo 1098828" transform="translate(0)">
          <path id="Trazado_872954" data-name="Trazado 872954" d="M361.614,314.057h-9.786a2.032,2.032,0,0,1,2.032,2.032v6.438a2.032,2.032,0,0,1-2.032,2.032h9.786a2.032,2.032,0,0,0,2.032-2.032v-6.438A2.032,2.032,0,0,0,361.614,314.057Z" transform="translate(-351.828 -314.057)" fill="#62a4fb"/>
        </g>
      </g>
      <g id="Grupo_1098831" data-name="Grupo 1098831" transform="translate(114.177 64.59)">
        <g id="Grupo_1098830" data-name="Grupo 1098830" transform="translate(0)">
          <path id="Trazado_872955" data-name="Trazado 872955" d="M185.49,209.594h-7.008a2.292,2.292,0,0,1-2.292-2.292v-7.008A2.292,2.292,0,0,1,178.482,198h7.008a2.292,2.292,0,0,1,2.292,2.292V207.3A2.292,2.292,0,0,1,185.49,209.594Z" transform="translate(-176.19 -198.002)" fill="#ffe07d"/>
        </g>
      </g>
      <g id="Grupo_1098833" data-name="Grupo 1098833" transform="translate(146.384 67.852)">
        <g id="Grupo_1098832" data-name="Grupo 1098832">
          <path id="Trazado_872956" data-name="Trazado 872956" d="M284.22,219.594h-7.008a2.292,2.292,0,0,1-2.292-2.292v-7.008A2.292,2.292,0,0,1,277.212,208h7.008a2.292,2.292,0,0,1,2.292,2.292V217.3A2.292,2.292,0,0,1,284.22,219.594Z" transform="translate(-274.92 -208.002)" fill="#ff8086"/>
        </g>
      </g>
      <g id="Grupo_1098835" data-name="Grupo 1098835" transform="translate(146.384 32.386)">
        <g id="Grupo_1098834" data-name="Grupo 1098834">
          <path id="Trazado_872957" data-name="Trazado 872957" d="M284.22,110.872h-7.008a2.292,2.292,0,0,1-2.292-2.292v-7.008a2.292,2.292,0,0,1,2.292-2.292h7.008a2.292,2.292,0,0,1,2.292,2.292v7.008A2.292,2.292,0,0,1,284.22,110.872Z" transform="translate(-274.92 -99.28)" fill="#ffe07d"/>
        </g>
      </g>
      <g id="Grupo_1098836" data-name="Grupo 1098836" transform="translate(84.153 -0.001)">
        <path id="Trazado_872958" data-name="Trazado 872958" d="M124.628,450.287a2.215,2.215,0,1,0-2.215-2.215A2.215,2.215,0,0,0,124.628,450.287Z" transform="translate(-109.932 -300.412)"/>
        <path id="Trazado_872959" data-name="Trazado 872959" d="M153.866,450.287a2.215,2.215,0,1,0-2.215-2.215A2.215,2.215,0,0,0,153.866,450.287Z" transform="translate(-129.632 -300.412)"/>
        <path id="Trazado_872960" data-name="Trazado 872960" d="M183.1,450.287a2.215,2.215,0,1,0-2.215-2.215A2.215,2.215,0,0,0,183.1,450.287Z" transform="translate(-149.332 -300.412)"/>
        <path id="Trazado_872961" data-name="Trazado 872961" d="M212.342,450.287a2.215,2.215,0,1,0-2.215-2.215A2.215,2.215,0,0,0,212.342,450.287Z" transform="translate(-169.033 -300.412)"/>
        <path id="Trazado_872962" data-name="Trazado 872962" d="M122.413,325.084a2.215,2.215,0,1,0,2.215-2.215A2.215,2.215,0,0,0,122.413,325.084Z" transform="translate(-109.932 -217.545)"/>
        <path id="Trazado_872963" data-name="Trazado 872963" d="M151.65,325.084a2.215,2.215,0,1,0,2.215-2.215A2.215,2.215,0,0,0,151.65,325.084Z" transform="translate(-129.632 -217.545)"/>
        <path id="Trazado_872964" data-name="Trazado 872964" d="M185.32,325.084A2.215,2.215,0,1,0,183.1,327.3,2.215,2.215,0,0,0,185.32,325.084Z" transform="translate(-149.332 -217.545)"/>
        <path id="Trazado_872965" data-name="Trazado 872965" d="M214.558,325.084a2.215,2.215,0,1,0-2.215,2.215A2.215,2.215,0,0,0,214.558,325.084Z" transform="translate(-169.033 -217.545)"/>
        <path id="Trazado_872966" data-name="Trazado 872966" d="M243.544,444.939h42.093a4.484,4.484,0,0,0,4.479-4.479v-6.438a4.484,4.484,0,0,0-4.479-4.479H243.544a4.484,4.484,0,0,0-4.479,4.479v6.438A4.484,4.484,0,0,0,243.544,444.939Zm.415-10.5h41.264v5.609H243.958Z" transform="translate(-188.531 -289.42)"/>
        <path id="Trazado_872967" data-name="Trazado 872967" d="M188.325,124.879a5.931,5.931,0,0,0,5.924-5.924V96.123a5.931,5.931,0,0,0-5.924-5.924h-33.7V81.891h1.058a4.744,4.744,0,0,0,4.738-4.739V70.144a4.744,4.744,0,0,0-4.738-4.739h-1.058V57.372h16.848a15.079,15.079,0,0,0,10.388-4.125,14.606,14.606,0,0,0,4.623-10.173q.01-.29.01-.583a16.745,16.745,0,0,0-14.353-16.553,16.724,16.724,0,0,0-22.327-14.079A24.193,24.193,0,0,0,104.837,24.04c0,.716.024,1.434.084,2.149a16.767,16.767,0,0,0-13.015,16.3c0,.194,0,.388.01.582a14.606,14.606,0,0,0,4.624,10.174,15.078,15.078,0,0,0,10.388,4.125h10.767v4.772h-1.225a4.744,4.744,0,0,0-4.739,4.739v7.008a4.744,4.744,0,0,0,4.739,4.739h7.008a4.744,4.744,0,0,0,4.739-4.739V66.882a4.744,4.744,0,0,0-4.739-4.739h-.89V57.372h27.146v8.034h-1.058a4.744,4.744,0,0,0-4.738,4.739v7.008a4.744,4.744,0,0,0,4.738,4.739h1.058V90.2H114.94a2.447,2.447,0,0,0,0,4.893h73.384a1.032,1.032,0,0,1,1.031,1.031v22.831a1.032,1.032,0,0,1-1.031,1.031H90.077a1.032,1.032,0,0,1-1.031-1.031V96.123a1.032,1.032,0,0,1,1.031-1.031h15.076a2.447,2.447,0,0,0,0-4.893H90.077a5.931,5.931,0,0,0-5.924,5.924v22.831a5.931,5.931,0,0,0,5.924,5.924h9.957v5.44H90.077a5.931,5.931,0,0,0-5.924,5.924v22.831A5.931,5.931,0,0,0,90.077,165h98.247a5.931,5.931,0,0,0,5.924-5.924V136.243a5.931,5.931,0,0,0-5.924-5.924H177.453v-5.44h10.872Zm-65-51.143h-6.7v-6.7h6.7Zm-16.4-21.257a10.109,10.109,0,0,1-10.121-9.572q-.007-.207-.007-.416a11.847,11.847,0,0,1,11.03-11.8,2.447,2.447,0,0,0,2.242-2.9,19.433,19.433,0,0,1-.341-3.73A19.381,19.381,0,0,1,129.011,4.893q.479,0,.96.023A19.229,19.229,0,0,1,146.5,16.055a2.446,2.446,0,0,0,3.383,1.12A11.831,11.831,0,0,1,167.33,27.584c0,.177-.006.353-.014.528a2.447,2.447,0,0,0,2.444,2.554h.041a11.84,11.84,0,0,1,11.8,11.827q0,.207-.007.414a10.109,10.109,0,0,1-10.121,9.573H154.626V46.425h1.058a4.744,4.744,0,0,0,4.738-4.739V34.678a4.744,4.744,0,0,0-4.738-4.739h-7.008a4.744,4.744,0,0,0-4.738,4.739v7.008a4.744,4.744,0,0,0,4.738,4.739h1.058v6.054H106.927Zm41.9-10.947v-6.7h6.7v6.7Zm0,28.767h6.7V77h-6.7Zm40.525,65.944v22.831a1.032,1.032,0,0,1-1.031,1.031H90.077a1.032,1.032,0,0,1-1.031-1.031V136.243a1.032,1.032,0,0,1,1.031-1.031h98.247a1.033,1.033,0,0,1,1.031,1.031Zm-16.8-5.924H104.927v-5.44H172.56Z" transform="translate(-84.153 0.001)"/>
        <path id="Trazado_872968" data-name="Trazado 872968" d="M285.636,321.953a4.484,4.484,0,0,0,4.479-4.479v-6.438a4.484,4.484,0,0,0-4.479-4.479H243.544a4.484,4.484,0,0,0-4.479,4.479v6.438a4.484,4.484,0,0,0,4.479,4.479Zm-41.678-10.5h41.264v5.609H243.958Z" transform="translate(-188.531 -206.554)"/>
      </g>
    </g>
  </g>
</svg>
